#N canvas 313 185 725 541 10;
#X obj 30 190 oscparse;
#X obj 30 162 netreceive -u -b;
#X msg 110 130 listen 0;
#X text 170 130 stop listening;
#X text 169 162 UDP packets \, binary output, f 13;
#X msg 30 107 listen 9999;
#X text 132 107 listen on port 9999;
#X obj 30 220 route list;
#X obj 30 260 route gyrosc;
#X obj 30 30 inlet;
#X obj 30 60 sel 1 0, f 27;
#X obj 30 370 unpack f f f;
#X obj 200 370 unpack f f f;
#X text 280 460 X (roll);
#X text 240 490 Y (pitch);
#X obj 240 460 s rvx;
#X obj 200 490 s rvy;
#X obj 280 430 s rvz;
#X obj 70 400 * -1;
#X obj 110 400 * -1;
#X obj 30 400 * -1;
#X obj 110 430 s az;
#X obj 70 460 s ax;
#X obj 30 490 s ay;
#X text 150 430 up;
#X text 70 490 right;
#X text 110 460 forward;
#X obj 440 400 s h;
#X text 470 400 heading;
#X floatatom 440 370 5 0 0 0 - - -, f 5;
#X obj 340 370 s quat;
#X obj 540 370 unpack f f f f f f;
#X obj 540 400 s lat;
#X obj 590 400 s lon;
#X obj 640 400 s alt;
#X obj 30 300 route accel rrate quat comp gps, f 98;
#X connect 0 0 7 0;
#X connect 1 0 0 0;
#X connect 2 0 1 0;
#X connect 5 0 1 0;
#X connect 7 0 8 0;
#X connect 8 0 35 0;
#X connect 9 0 10 0;
#X connect 10 0 5 0;
#X connect 10 1 2 0;
#X connect 11 0 20 0;
#X connect 11 1 18 0;
#X connect 11 2 19 0;
#X connect 12 0 16 0;
#X connect 12 1 15 0;
#X connect 12 2 17 0;
#X connect 18 0 22 0;
#X connect 19 0 21 0;
#X connect 20 0 23 0;
#X connect 29 0 27 0;
#X connect 31 0 32 0;
#X connect 31 1 33 0;
#X connect 31 2 34 0;
#X connect 35 0 11 0;
#X connect 35 1 12 0;
#X connect 35 2 30 0;
#X connect 35 3 29 0;
#X connect 35 4 31 0;
