#N canvas 708 316 725 541 10;
#X obj 30 190 oscparse;
#X obj 30 220 route list;
#X obj 30 260 route gyrosc;
#X obj 30 370 unpack f f f;
#X obj 200 370 unpack f f f;
#X text 280 460 X (roll);
#X text 240 490 Y (pitch);
#X obj 240 460 s rvx;
#X obj 200 490 s rvy;
#X obj 280 430 s rvz;
#X obj 70 400 * -1;
#X obj 110 400 * -1;
#X obj 30 400 * -1;
#X obj 110 430 s az;
#X obj 70 460 s ax;
#X obj 30 490 s ay;
#X text 150 430 up;
#X text 70 490 right;
#X text 110 460 forward;
#X obj 440 400 s h;
#X text 470 400 heading;
#X floatatom 440 370 5 0 0 0 - - -, f 5;
#X obj 540 370 unpack f f f f f f;
#X obj 540 400 s lat;
#X obj 590 400 s lon;
#X obj 640 400 s alt;
#X obj 30 300 route accel rrate quat comp gps, f 98;
#X obj 360 380 outlet;
#X obj 30 130 inlet;
#X connect 0 0 1 0;
#X connect 1 0 2 0;
#X connect 2 0 26 0;
#X connect 3 0 12 0;
#X connect 3 1 10 0;
#X connect 3 2 11 0;
#X connect 4 0 8 0;
#X connect 4 1 7 0;
#X connect 4 2 9 0;
#X connect 10 0 14 0;
#X connect 11 0 13 0;
#X connect 12 0 15 0;
#X connect 21 0 19 0;
#X connect 22 0 23 0;
#X connect 22 1 24 0;
#X connect 22 2 25 0;
#X connect 26 0 3 0;
#X connect 26 1 4 0;
#X connect 26 2 27 0;
#X connect 26 3 21 0;
#X connect 26 4 22 0;
#X connect 28 0 0 0;
