#N canvas 697 176 1185 786 10;
#X obj 10 20 cnv 15 261 308 empty empty empty 20 12 0 14 #ecefd1 #404040
0;
#X obj 30 190 oscparse;
#X obj 30 162 netreceive -u -b;
#X msg 110 130 listen 0;
#X text 170 130 stop listening;
#X text 169 162 UDP packets \, binary output, f 13;
#X msg 30 107 listen 9999;
#X text 132 107 listen on port 9999;
#X obj 30 220 route list;
#X obj 30 260 route gyrosc;
#X text 140 300 🌥 2022 bob@zeal.co;
#X obj 30 30 inlet;
#X obj 30 60 sel 1 0, f 27;
#X obj 30 290 outlet;
#X connect 1 0 8 0;
#X connect 2 0 1 0;
#X connect 3 0 2 0;
#X connect 6 0 2 0;
#X connect 8 0 9 0;
#X connect 9 0 13 0;
#X connect 11 0 12 0;
#X connect 12 0 6 0;
#X connect 12 1 3 0;
