#N canvas 904 195 740 484 12;
#X obj 200 35 inlet note;
#X obj 210 95 outlet note;
#X obj 160 125 route time;
#X obj 163 158 s time-\$0;
#X obj 312 131 cnv 5 20 5 empty empty empty 20 12 0 14 #94c4ec #404040
0;
#X obj 362 133 cnv 5 20 5 empty empty empty 20 12 0 14 #f0a8d8 #404040
0;
#X obj 362 147 cnv 5 20 5 empty empty empty 20 12 0 14 #bca8fc #404040
0;
#X obj 322 143 cnv 5 20 5 empty empty empty 20 12 0 14 #f0a8d8 #404040
0;
#X obj 301 162 cnv 5 20 5 empty empty empty 20 12 0 14 #d6d6d6 #404040
0;
#X obj 12 12;
#N canvas 782 406 450 300 sustain 0;
#X obj 170 180 stripnote;
#X obj 170 200 pack;
#X obj 190 40 inlet;
#X obj 140 40 inlet;
#X obj 140 240 outlet;
#X obj 140 120 list trim;
#X obj 140 150 route 0 1;
#X obj 140 80 list prepend 0;
#X connect 0 0 1 0;
#X connect 0 1 1 1;
#X connect 1 0 4 0;
#X connect 2 0 7 1;
#X connect 3 0 7 0;
#X connect 5 0 6 0;
#X connect 6 0 4 0;
#X connect 6 1 0 0;
#X connect 7 0 5 0;
#X restore 322 72 pd sustain;
#X obj 382 32 r from-pedal-\$0;
#X obj 630 320 pack 0 0 0;
#X obj 630 280 poly 4 1;
#X obj 540 220 sel 0;
#X obj 630 250 cyclone/flush;
#N canvas 782 406 450 300 sustain 0;
#X obj 170 180 stripnote;
#X obj 170 200 pack;
#X obj 190 40 inlet;
#X obj 140 40 inlet;
#X obj 140 240 outlet;
#X obj 140 120 list trim;
#X obj 140 150 route 0 1;
#X obj 140 80 list prepend 0;
#X connect 0 0 1 0;
#X connect 0 1 1 1;
#X connect 1 0 4 0;
#X connect 2 0 7 1;
#X connect 3 0 7 0;
#X connect 5 0 6 0;
#X connect 6 0 4 0;
#X connect 6 1 0 0;
#X connect 7 0 5 0;
#X restore 630 120 pd sustain;
#X obj 540 160 r time-\$0;
#X obj 540 185 route play;
#X msg 420 220 stop;
#X obj 420 190 sel 0;
#X obj 420 160 r from-pedal-\$0;
#X connect 0 0 1 0;
#X connect 0 0 2 0;
#X connect 2 0 3 0;
#X connect 11 0 10 1;
#X connect 13 0 12 0;
#X connect 13 1 12 1;
#X connect 13 2 12 2;
#X connect 14 0 15 0;
#X connect 15 0 13 0;
#X connect 15 1 13 1;
#X connect 16 0 15 0;
#X connect 17 0 18 0;
#X connect 18 0 14 0;
#X connect 18 0 20 0;
#X connect 19 0 13 0;
#X connect 20 0 19 0;
#X connect 21 0 20 0;
