#N struct text float x float y text t;
#N canvas 497 23 1183 1005 12;
#X declare -path ./elevon;
#X declare -path ./bop;
#X declare -path ./subpatches;
#X declare -path ./sketches;
#X declare -path ./samples;
#X declare -path ./templates;
#X declare -path ./other;
#X obj 900 720 bop.out;
#A saved 1 0 0 0;
#X obj 400 840 cnv 15 200 18 empty empty empty 20 12 0 14 #e0e0e0 #404040
0;
#X obj 700 840 cnv 15 500 20 empty empty empty 20 12 0 14 #e0e0e0 #404040
0;
#X obj 400 1200 cnv 15 200 20 empty empty empty 20 12 0 14 #e0e0e0
#404040 0;
#X obj 30 1210 cnv 15 260 20 empty empty empty 20 12 0 14 #e0e0e0 #404040
0;
#X obj 30 1390 cnv 15 240 15 empty \$0-version-text Pd-l2ork-2.17.0\ 20210829-rev.e47b7c65
5 6 0 10 #e0e0e0 #404040 0;
#X obj 30 1240 declare -path ./elevon;
#X obj 30 1260 declare -path ./bop;
#X obj 30 1280 declare -path ./subpatches;
#X obj 900 560 bop.receive;
#A saved master;
#X obj 900 620 bop.mix;
#A saved 0 0.950164 0;
#X obj 400 390 lvn.hyperstave 7;
#X msg 520 350 connect 0;
#X msg 400 350 hue \$1;
#X obj 400 570 route 0 1 2 3 4 5 6, f 20;
#N canvas 731 75 1149 942 still 0;
#X obj 90 160 inlet;
#X obj 90 260 lvn.stave;
#X floatatom 320 190 5 0 0 0 - - -, f 5;
#X floatatom 280 70 5 0 0 0 - - -, f 5;
#X floatatom 300 130 5 0 0 0 - - -, f 5;
#X msg 280 100 button \$1;
#X msg 300 160 playhead \$1;
#X obj 430 790 tgl 15 0 empty empty empty 17 7 0 10 #fcfcfc #000000
#000000 0 1;
#X floatatom 510 720 5 0 0 0 - - -, f 5;
#X floatatom 588 638 5 0 0 0 - - -, f 5;
#X msg 670 560 0 0;
#N canvas 0 22 450 300 prepend-set 0;
#X obj 40 80 list prepend set;
#X obj 40 110 list trim;
#X obj 13 26 inlet;
#X obj 13 183 outlet;
#X connect 0 0 1 0;
#X connect 1 0 3 0;
#X connect 2 0 0 0;
#X restore 670 510 pd prepend-set;
#X obj 430 470 route active relativepos distance coords, f 46;
#X obj 90 480 lvn.hyperstave 4;
#X floatatom 120 410 5 0 0 0 - - -, f 5;
#X msg 120 440 hue \$1;
#X text 460 790 useful for enabling/disbaling subpatch;
#X text 550 720 useful for controlling embedded hyperstaves \, and
spatial panning, f 64;
#X text 638 638 useful for volume automation;
#X text 710 560 useful for reusable generative algorithms;
#X obj 430 890 switch~;
#X obj 430 860 tgl 15 0 empty empty empty 17 7 0 10 #fcfcfc #000000
#000000 1 1;
#X floatatom 540 870 5 0 0 0 - - -, f 5;
#X text 458 768 ACTIVE;
#X text 548 698 RELATIVEPOS;
#X text 638 618 DISTANCE;
#X text 710 540 COORDS;
#N canvas 672 127 450 300 smooth-switch 0;
#X obj 40 110 line;
#X msg 40 80 \$1 750;
#X obj 40 150 > 0;
#X obj 40 180 change;
#X obj 40 40 inlet;
#X obj 90 180 outlet;
#X obj 40 210 outlet;
#X connect 0 0 2 0;
#X connect 0 0 5 0;
#X connect 1 0 0 0;
#X connect 2 0 3 0;
#X connect 3 0 6 0;
#X connect 4 0 1 0;
#X restore 430 830 pd smooth-switch;
#X text 580 870 👈 use to smoothly fade subpatch;
#X msg 320 220 message \$1;
#X text 410 100 control stave toggle;
#X text 410 160 control stave slider;
#X text 410 200 all other messages are forward to parent hyperstave
and are output from its bottom right outlet, f 35;
#X text 370 360 local send and receives are local to this subpatch
, f 26;
#X obj 430 430 lvn.localreceive stave-info;
#X obj 270 310 lvn.localsend stave-info;
#X text 90 100 communicates with parent hyperstave, f 16;
#X text 100 330 communicates with child hyperstave, f 16;
#X text 680 290 AT SLOW SPEEDS - groundspeed should be directly tied
to bpm;
#X connect 0 0 1 0;
#X connect 1 0 13 0;
#X connect 1 1 35 0;
#X connect 2 0 29 0;
#X connect 3 0 5 0;
#X connect 4 0 6 0;
#X connect 5 0 1 1;
#X connect 6 0 1 1;
#X connect 7 0 27 0;
#X connect 11 0 10 0;
#X connect 12 0 7 0;
#X connect 12 1 8 0;
#X connect 12 2 9 0;
#X connect 12 3 11 0;
#X connect 14 0 15 0;
#X connect 15 0 13 0;
#X connect 21 0 20 0;
#X connect 27 0 21 0;
#X connect 27 1 22 0;
#X connect 29 0 1 1;
#X connect 34 0 12 0;
#X restore 400 780 pd still;
#N canvas 615 23 450 300 walk 0;
#X obj 148 167 inlet;
#X restore 440 720 pd walk;
#N canvas 174 459 450 300 move 0;
#X obj 148 167 inlet;
#X obj 140 220 lvn.hyperstave 4;
#X connect 0 0 1 0;
#X restore 420 750 pd move;
#N canvas 615 23 450 300 jog 0;
#X obj 148 167 inlet;
#X restore 460 690 pd jog;
#N canvas 615 23 450 300 sprint 0;
#X obj 148 167 inlet;
#X restore 480 660 pd sprint;
#N canvas 615 23 450 300 cruise 0;
#X obj 148 167 inlet;
#X restore 500 630 pd cruise;
#N canvas 615 23 450 300 speed 0;
#X obj 148 167 inlet;
#X restore 520 600 pd speed;
#X obj 520 320 loadbang;
#X obj 20 30 cnv 3 297 8 empty \$0cvs0 -=ELEVON-ONE=- 23 -3 0 30 #ff9999
#000000 0;
#X obj 30 1320 declare -path ./sketches;
#X obj 700 1320 tgl 15 0 empty empty empty 17 7 0 10 #fcfcfc #000000
#000000 1 1;
#X obj 30 1300 declare -path ./samples;
#X text 600 420 0.1;
#X text 600 400 0;
#X text 600 440 1;
#X text 600 460 2;
#X text 600 480 7;
#X text 600 500 15;
#X text 600 520 30;
#X text 600 380 m/s;
#X obj 30 1340 declare -path ./templates;
#X obj 510 1230 metavoice;
#X obj 400 1230 stave-subpatch;
#X text 30 1210 Libraries and Assets;
#X text 400 1200 Templates;
#X text 700 840 Sketches;
#N canvas 495 23 744 477 get-version 0;
#X msg 40 110 l2ork_version;
#X obj 40 135 pdinfo;
#X obj 40 160 makefilename Pd-l2ork-%s;
#X msg 40 185 label \$1;
#X obj 40 80 bng 15 250 50 0 empty empty get\ current\\\\\ PD\\\\\\\\\\\\\\\\\\\\\\\\\\\\\\\\\\\\\\\\\\\\\\\\\\\\\\\\\\\\\\\\\\\\\\\\\\\\\\\\\\\\\\\\\\\\\\\\\\\\\\\\\\\\\\\\\\\\\\\\\\\\*
17 7 0 10 #fcfcfc #000000 #000000;
#X obj 40 210 s \$0-version-text;
#X obj 40 50 inlet;
#X connect 0 0 1 0;
#X connect 1 0 2 0;
#X connect 2 0 3 0;
#X connect 3 0 5 0;
#X connect 4 0 0 0;
#X connect 6 0 4 0;
#X coords 0 -1 1 1 160 15 2 40 80;
#X restore 30 1410 pd get-version;
#X obj 700 880 tgl 15 0 empty empty empty 17 7 0 10 #fcfcfc #000000
#000000 0 1;
#X obj 400 910 metavoice001, f 25;
#X text 1410 1960 🐉;
#X obj 400 880 tgl 15 0 empty empty empty 17 7 0 10 #fcfcfc #000000
#000000 0 1;
#X obj 700 1650 tgl 15 0 empty empty empty 17 7 0 10 #fcfcfc #000000
#000000 0 1;
#X obj 400 1270 sketch;
#N canvas 840 23 840 1005 map-groundspeed 0;
#X obj 200 150 moses 0.1;
#X obj 410 210 moses 1;
#X obj 630 270 moses 2;
#X obj 830 330 moses 7;
#X obj 1030 400 moses 15;
#X obj 1240 470 moses 30;
#X obj 200 520 sub.bop.util.scale 0 0.1 0 1;
#X obj 410 520 sub.bop.util.scale 0.1 1 1 2;
#X obj 630 520 sub.bop.util.scale 1 2 2 3;
#X obj 830 520 sub.bop.util.scale 2 7 3 4;
#X obj 1030 520 sub.bop.util.scale 7 15 4 5;
#X obj 1240 520 sub.bop.util.scale 15 30 5 6;
#X obj 1460 520 sub.bop.util.scale 30 60 6 7;
#X obj 200 770 / 7;
#X obj 200 870 outlet;
#X obj 200 830 clip 0 1;
#X text 210 220 TODO: exponential scaling from still to moving, f
13;
#X obj 200 100 r gs;
#X text 240 100 It probably makes sense to lag this value to old the
composition at particular velocities, f 46;
#X obj 150 150 outlet;
#X obj 200 800 sub.bop.util.slide 1 100;
#X connect 0 0 6 0;
#X connect 0 1 1 0;
#X connect 1 0 7 0;
#X connect 1 1 2 0;
#X connect 2 0 8 0;
#X connect 2 1 3 0;
#X connect 3 0 9 0;
#X connect 3 1 4 0;
#X connect 4 0 10 0;
#X connect 4 1 5 0;
#X connect 5 0 11 0;
#X connect 5 1 12 0;
#X connect 6 0 13 0;
#X connect 7 0 13 0;
#X connect 8 0 13 0;
#X connect 9 0 13 0;
#X connect 10 0 13 0;
#X connect 11 0 13 0;
#X connect 12 0 13 0;
#X connect 13 0 20 0;
#X connect 15 0 14 0;
#X connect 17 0 0 0;
#X connect 17 0 19 0;
#X connect 20 0 15 0;
#X restore 400 280 pd map-groundspeed;
#X obj 30 280 telemetry;
#X msg 910 380 88;
#X msg 950 380 55;
#X msg 950 350 walk;
#X msg 1030 350 move;
#X msg 1030 380 5;
#X msg 910 350 jog;
#X msg 850 350 sprint;
#X msg 790 350 cruise;
#X text 400 840 Voices;
#X text 30 180 This patch can receive live sensor data \, or playback
a log of a previous session. Video recordings can be syncronished with
log playback., f 37;
#X text 720 1320 Tempo-fluid transition, f 23;
#X obj 400 30 cnv 10 300 10 empty \$0cvs0 Elevon 1 -1 0 16 #ebebeb
#000000 0;
#X obj 800 30 cnv 10 300 10 empty \$0cvs0 Bop 1 -1 0 16 #ebebeb #000000
0;
#X obj 30 840 cnv 15 260 20 empty empty empty 20 12 0 14 #e0e0e0 #404040
0;
#X text 30 840 Manual Control;
#X obj 30 1130 hsl 250 15 0 60 0 0 empty empty empty -2 -8 0 10 #fcfcfc
#000000 #000000 0 1;
#X floatatom 30 1100 9 0 0 0 - - -, f 9;
#X obj 30 1150 s gs;
#X text 230 990 Heading;
#X text 200 1100 Ground speed;
#X text 30 150 Listen loudly and in the background., f 38;
#X msg 990 380 40;
#X msg 1070 380 1.42;
#X obj 400 980 metavoice002, f 25;
#X msg 1070 350 still;
#X obj 400 950 tgl 15 0 empty empty empty 17 7 0 10 #fcfcfc #000000
#000000 0 1;
#X msg 1000 460 bpm \$1;
#X floatatom 1000 430 7 0 0 0 - - -, f 7;
#N canvas 495 23 450 300 more-about-elevon 0;
#X obj 136 33 r hues;
#X obj 140 70 route 0;
#X obj 140 130 route 0 1 2 3 4 5 6;
#X floatatom 230 100 5 0 0 0 - - -, f 5;
#X floatatom 140 159 5 0 0 0 - - -, f 5;
#X text 70 200 The state of the composition can be represented by a
heirarchy of hues., f 35;
#X connect 0 0 1 0;
#X connect 1 0 2 0;
#X connect 2 0 4 0;
#X restore 570 110 pd more-about-elevon;
#N canvas 1109 140 450 300 more-about-bop 0;
#X restore 1000 80 pd more-about-bop;
#X text 720 1650 loud and epic;
#X msg 740 350 speed;
#X text 420 950 Azimuth Sparkles;
#X text 420 880 Northern Harmonium, f 20;
#X msg 940 1310 amp 1;
#X msg 950 1340 bpm 1.42;
#X msg 960 1370 bpm 44;
#X msg 1260 870 amp 1;
#X msg 960 1670 bpm 1.42;
#X msg 950 1640 bpm 12;
#X msg 970 1700 bpm 4;
#X msg 850 380 172, f 7;
#X msg 790 380 344;
#X msg 740 380 688;
#X text 680 480 This piece associates faster tempos with higher velocities
to create an elastic relationship between time and space., f 25;
#X floatatom 400 320 9 0 0 0 - - -, f 9;
#X obj 30 1020 hsl 249 15 0 360 0 0 empty empty empty -2 -8 0 10 #fcfcfc
#000000 #000000 0 1;
#X obj 30 910 hsl 249 15 0 360 0 0 empty empty empty -2 -8 0 10 #fcfcfc
#000000 #000000 0 1;
#X text 250 880 Pitch;
#X obj 30 1050 s h, f 5;
#X obj 1000 500 s global-params;
#X obj 1320 870 r global-params;
#X obj 970 1400 r global-params;
#X obj 980 1730 r global-params;
#X msg 1060 460 play \$1;
#X obj 1060 430 tgl 15 0 empty empty empty 17 7 0 10 #fcfcfc #000000
#000000 0 1;
#X text 30 60 Elevon-One is a spatial metacomposition: a piece of music
arranged in physical space in such a way as to musically respond to
the movement of a solo-performer., f 38;
#X text 400 50 Elevon is a library for Pure Data responsible for arranging
musical sketches in a hue-coded \, looping timeline called a "Hyperstave".
, f 41;
#X text 400 140 Data can be translated into music by designing for
it to influence which hues of a hyperstave are heard., f 42;
#X text 400 200 Hyperstaves can contain within themselves further hyperstaves
\, leading to a flexible \, n-dimensional virtual space in which to
arrange music., f 42;
#X text 800 50 Bop is modular tool suite for creating autonomous musical
sketches., f 42;
#X floatatom 30 990 5 0 0 0 - - -, f 5;
#X obj 30 940 s pitch;
#X floatatom 30 880 5 0 0 0 - - -, f 5;
#X obj 710 920 casio-rodeo;
#X obj 390 1370 tempo-fluid;
#X obj 700 1680 loud-and-epic;
#X msg 990 1760 note 40 100;
#X text 800 120 Bop sketches are created as Pure Data abstractions.
Variations of these abstractions can be played atop each other \, each
instance having an independant clock., f 43;
#X text 800 210 Elevon can be used to arrange Bop sketches along branches
of incoming data., f 45;
#X obj 30 1360 declare -path ./other;
#X obj 80 991 r h;
#X floatatom 110 990 5 0 0 0 - - -, f 5;
#X obj 1050 1242 r gs;
#X msg 1050 1300 bpm \$1;
#X obj 1050 1271 * 88;
#X msg 920 1270 rewind 1;
#X text 773 882 walk at 88 bpm;
#X text 890 880 jog at 172 bpm;
#X msg 1104 1304 pitch \$1;
#X obj 1660 1150 r alt;
#X floatatom 1190 1320 5 0 0 0 - - -, f 5;
#X msg 1170 1380 161;
#X msg 1180 1430 152.5;
#X obj 1660 1190 sub.bop.util.scale 152.5 161 0 1;
#X obj 1083 1535 * 4;
#X obj 1080 1570 int;
#X obj 1170 1600 * 12;
#X floatatom 1170 1629 5 0 0 0 - - -, f 5;
#X obj 1170 1680 change;
#X obj 1210 1600 bng 15 250 50 0 empty empty empty 17 7 0 10 #fcfcfc
#000000 #000000;
#X obj 1590 1400 bop.noteslider;
#A saved 6.78261 0 4.27523;
#X obj 1360 1540 sub.bop.util.noses;
#X obj 1350 1690 bz/inspect;
#X obj 1370 1590 unpack f f;
#X msg 1660 1219 noteslider \$1;
#X obj 1817 1524 bng 15 250 50 0 empty empty empty 17 7 0 10 #fcfcfc
#000000 #000000;
#X obj 1370 1619 - 60;
#X obj 1370 1648 + 24;
#X obj 1320 1150 bop.notelist;
#A saved f#1\ d2\ a2 0;
#X msg 1610 1040 notelist g1 d2 b2;
#X obj 1330 981 r alt;
#X msg 1330 1060 note \$1;
#X obj 1420 1030 int;
#X obj 1420 1060 change;
#X obj 1300 1310 bop.notefx;
#A saved 0.56 2.08 0 0 100 127 1 0 0;
#X obj 1330 1021 sub.bop.util.scale 152.5 161 1 200;
#X obj 1560 910 r h;
#X obj 1637 955 int;
#X obj 1637 984 change;
#X obj 1744 975 sel 0 1 2;
#X msg 1700 1110 notelist f#1 d2 a2;
#X floatatom 1570 970 5 0 0 0 - - -, f 5;
#X obj 1637 926 sub.bop.util.scale 0 360 0 3;
#X msg 1640 1080 notelist c2 d2 g2;
#X obj 1000 1531 r gs;
#X msg 1000 1589 bpm \$1;
#X obj 1000 1560 * 22;
#X msg 1130 460 rewind 1;
#X connect 9 0 10 0;
#X connect 9 1 10 1;
#X connect 9 2 10 2;
#X connect 9 3 10 3;
#X connect 10 0 0 0;
#X connect 10 1 0 1;
#X connect 10 2 0 2;
#X connect 10 3 0 3;
#X connect 11 0 14 0;
#X connect 12 0 11 0;
#X connect 13 0 11 0;
#X connect 14 0 15 0;
#X connect 14 1 17 0;
#X connect 14 2 16 0;
#X connect 14 3 18 0;
#X connect 14 4 19 0;
#X connect 14 5 20 0;
#X connect 14 6 21 0;
#X connect 22 0 12 0;
#X connect 25 0 115 0;
#X connect 42 0 114 0;
#X connect 45 0 43 0;
#X connect 46 0 116 0;
#X connect 48 1 95 0;
#X connect 50 0 77 0;
#X connect 51 0 77 0;
#X connect 52 0 51 0;
#X connect 53 0 54 0;
#X connect 54 0 77 0;
#X connect 55 0 50 0;
#X connect 56 0 91 0;
#X connect 57 0 92 0;
#X connect 65 0 67 0;
#X connect 66 0 65 0;
#X connect 71 0 77 0;
#X connect 72 0 77 0;
#X connect 74 0 72 0;
#X connect 75 0 73 0;
#X connect 76 0 100 0;
#X connect 77 0 76 0;
#X connect 81 0 93 0;
#X connect 84 0 115 2;
#X connect 85 0 115 2;
#X connect 86 0 115 2;
#X connect 87 0 114 1;
#X connect 88 0 116 1;
#X connect 89 0 116 1;
#X connect 90 0 116 1;
#X connect 91 0 77 0;
#X connect 92 0 77 0;
#X connect 93 0 77 0;
#X connect 95 0 13 0;
#X connect 96 0 99 0;
#X connect 97 0 112 0;
#X connect 101 0 114 1;
#X connect 102 0 115 2;
#X connect 103 0 116 1;
#X connect 104 0 100 0;
#X connect 105 0 104 0;
#X connect 111 0 96 0;
#X connect 113 0 97 0;
#X connect 117 0 116 1;
#X connect 121 0 122 0;
#X connect 123 0 125 0;
#X connect 124 0 115 2;
#X connect 125 0 124 0;
#X connect 126 0 115 2;
#X connect 129 0 115 2;
#X connect 130 0 134 0;
#X connect 134 0 145 0;
#X connect 135 0 136 0;
#X connect 136 0 137 0;
#X connect 137 0 138 0;
#X connect 138 0 139 0;
#X connect 140 0 138 0;
#X connect 141 2 146 0;
#X connect 142 1 144 0;
#X connect 144 0 147 0;
#X connect 147 0 148 0;
#X connect 148 0 129 0;
#X connect 149 2 155 2;
#X connect 150 0 149 3;
#X connect 151 0 156 0;
#X connect 152 0 149 3;
#X connect 153 0 154 0;
#X connect 154 0 152 0;
#X connect 155 2 142 0;
#X connect 156 0 153 0;
#X connect 157 0 163 0;
#X connect 158 0 159 0;
#X connect 158 0 162 0;
#X connect 159 0 160 0;
#X connect 160 0 150 0;
#X connect 160 1 164 0;
#X connect 160 2 161 0;
#X connect 161 0 149 3;
#X connect 163 0 158 0;
#X connect 164 0 149 3;
#X connect 165 0 167 0;
#X connect 166 0 116 1;
#X connect 167 0 166 0;
#X connect 168 0 100 0;
