#N canvas 407 23 1273 1005 12;
#X declare -path ./elevon;
#X declare -path ./bop;
#X declare -path ./subpatches;
#X declare -path ./sketches;
#X declare -path ./samples;
#X obj 40 720 cnv 15 100 89 empty empty empty 20 12 0 14 #f5dcf2 #404040
0;
#X obj 40 250 cnv 15 328 69 empty empty empty 20 12 0 14 #dff7f1 #404040
0;
#X obj 40 100 declare -path ./elevon;
#X obj 40 125 declare -path ./bop;
#X obj 40 350 lvn.telemetry;
#X obj 500 260 bop;
#A saved 100;
#X obj 40 154 declare -path ./subpatches;
#X obj 50 270 tgl 15 0 empty empty empty 17 7 0 10 #fcfcfc #000000
#000000 0 1;
#X text 1610 1810 comment;
#X obj 50 290 gyrosc2elevon;
#X text 70 260 receive realtime from gyrOSC (port 9999), f 41;
#X obj 500 100 bop.receive;
#A saved master;
#X obj 500 160 bop.mix;
#A saved 0 1.02597 0;
#X obj 200 420 lvn.hyperstave 7;
#X msg 320 380 connect 0;
#X msg 200 380 hue \$1;
#X floatatom 200 350 5 0 0 0 - - -, f 5;
#X text 50 740 X = forward;
#X text 50 760 Y = right;
#X text 50 780 Z = up;
#X obj 200 590 route 0 1 2 3 4 5 6, f 26;
#N canvas 840 23 840 491 still 0;
#X obj 100 70 inlet;
#X obj 100 100 lvn.stave;
#X msg 340 60 test \$1;
#X floatatom 340 30 5 0 0 0 - - -, f 5;
#X floatatom 410 30 5 0 0 0 - - -, f 5;
#X floatatom 490 30 5 0 0 0 - - -, f 5;
#X msg 410 60 button \$1;
#X msg 490 60 playhead \$1;
#X obj 340 370 tgl 15 0 empty empty empty 17 7 0 10 #fcfcfc #000000
#000000 0 1;
#X floatatom 420 330 5 0 0 0 - - -, f 5;
#X floatatom 500 290 5 0 0 0 - - -, f 5;
#X msg 580 250 0 0;
#N canvas 0 22 450 300 prepend-set 0;
#X obj 40 80 list prepend set;
#X obj 40 110 list trim;
#X obj 13 26 inlet;
#X obj 13 183 outlet;
#X connect 0 0 1 0;
#X connect 1 0 3 0;
#X connect 2 0 0 0;
#X restore 580 220 pd prepend-set;
#X obj 340 150 route active relativepos distance coords, f 46;
#X obj 100 320 lvn.hyperstave 4;
#X floatatom 130 230 5 0 0 0 - - -, f 5;
#X msg 130 260 hue \$1;
#X text 370 370 useful for enabling/disbaling subpatch;
#X text 460 330 useful for controlling embedded hyperstaves \, and
spatial panning, f 64;
#X text 550 290 useful for volume automation;
#X text 620 250 useful for reusable generative algorithms;
#X obj 340 560 switch~;
#X obj 340 530 tgl 15 0 empty empty empty 17 7 0 10 #fcfcfc #000000
#000000 0 1;
#X obj 340 430 line;
#X msg 340 400 \$1 750;
#X floatatom 430 520 5 0 0 0 - - -, f 5;
#X obj 340 470 > 0;
#X obj 340 500 change;
#X text 470 520 👈 use to fade out patch;
#X connect 0 0 1 0;
#X connect 1 0 14 0;
#X connect 1 1 13 0;
#X connect 2 0 1 1;
#X connect 3 0 2 0;
#X connect 4 0 6 0;
#X connect 5 0 7 0;
#X connect 6 0 1 1;
#X connect 7 0 1 1;
#X connect 8 0 24 0;
#X connect 12 0 11 0;
#X connect 13 0 8 0;
#X connect 13 1 9 0;
#X connect 13 2 10 0;
#X connect 13 3 12 0;
#X connect 15 0 16 0;
#X connect 16 0 14 0;
#X connect 22 0 21 0;
#X connect 23 0 25 0;
#X connect 23 0 26 0;
#X connect 24 0 23 0;
#X connect 26 0 27 0;
#X connect 27 0 22 0;
#X restore 200 810 pd still;
#N canvas 615 23 450 300 walk 0;
#X obj 148 167 inlet;
#X restore 250 750 pd walk;
#N canvas 615 23 450 300 move 0;
#X obj 148 167 inlet;
#X restore 220 780 pd move;
#N canvas 615 23 450 300 jog 0;
#X obj 148 167 inlet;
#X restore 270 720 pd jog;
#N canvas 615 23 450 300 sprint 0;
#X obj 148 167 inlet;
#X restore 290 690 pd sprint;
#N canvas 615 23 450 300 cruise 0;
#X obj 148 167 inlet;
#X restore 320 660 pd cruise;
#N canvas 615 23 450 300 speed 0;
#X obj 148 167 inlet;
#X restore 340 630 pd speed;
#X obj 320 350 loadbang;
#X obj 40 50 cnv 3 297 8 empty \$0cvs0 -=ELEVON-ONE=- 23 -3 0 30 #ff9999
#000000 0;
#X obj 40 184 declare -path ./sketches;
#X obj 510 440 sketch001;
#X obj 510 410 tgl 15 0 empty empty empty 17 7 0 10 #fcfcfc #000000
#000000 0 1;
#X obj 38 217 declare -path ./samples;
#X text 80 720 ❗️;
#X connect 7 0 9 0;
#X connect 11 0 12 0;
#X connect 11 1 12 1;
#X connect 11 2 12 2;
#X connect 11 3 12 3;
#X connect 12 0 5 0;
#X connect 12 1 5 1;
#X connect 12 2 5 2;
#X connect 12 3 5 3;
#X connect 13 0 20 0;
#X connect 14 0 13 0;
#X connect 15 0 13 0;
#X connect 16 0 15 0;
#X connect 20 0 21 0;
#X connect 20 1 23 0;
#X connect 20 2 22 0;
#X connect 20 3 24 0;
#X connect 20 4 25 0;
#X connect 20 5 26 0;
#X connect 20 6 27 0;
#X connect 28 0 14 0;
#X connect 32 0 31 0;
