#N struct text float x float y text t;
#N canvas 840 23 840 1005 12;
#X declare -path ./elevon;
#X declare -path ./bop;
#X declare -path ./subpatches;
#X declare -path ./sketches;
#X declare -path ./samples;
#X declare -path ./templates;
#X obj 560 100 cnv 15 250 20 empty empty empty 20 12 0 14 #e0e0e0 #404040
0;
#X obj 300 100 cnv 15 250 20 empty empty empty 20 12 0 14 #e0e0e0 #404040
0;
#X obj 40 100 cnv 15 250 20 empty empty empty 20 12 0 14 #e0e0e0 #404040
0;
#X obj 40 270 cnv 15 240 15 empty \$0-version-text Pd-l2ork-2.17.0\ 20210829-rev.e47b7c65
5 6 0 10 #e0e0e0 #404040 0;
#X obj 40 770 cnv 15 100 89 empty empty empty 20 12 0 14 #edf7ee #404040
0;
#X obj 40 130 declare -path ./elevon;
#X obj 40 150 declare -path ./bop;
#X obj 40 400 lvn.telemetry;
#X obj 600 530 bop;
#A saved 110;
#X obj 40 170 declare -path ./subpatches;
#X obj 40 340 tgl 15 0 empty empty empty 17 7 0 10 #fcfcfc #000000
#000000 0 1;
#X obj 40 370 gyrosc2elevon;
#X obj 600 360 bop.receive;
#A saved master;
#X obj 600 430 bop.mix;
#A saved 0 1.00019 0;
#X obj 300 430 lvn.hyperstave 7;
#X msg 360 390 connect 0;
#X msg 300 390 hue \$1;
#X floatatom 300 360 5 0 0 0 - - -, f 5;
#X text 50 790 X = forward;
#X text 50 810 Y = right;
#X text 50 830 Z = up;
#X obj 300 600 route 0 1 2 3 4 5 6, f 20;
#N canvas 178 23 1324 942 still 0;
#X obj 90 160 inlet;
#X obj 90 260 lvn.stave;
#X floatatom 320 190 5 0 0 0 - - -, f 5;
#X floatatom 280 70 5 0 0 0 - - -, f 5;
#X floatatom 300 130 5 0 0 0 - - -, f 5;
#X msg 280 100 button \$1;
#X msg 300 160 playhead \$1;
#X obj 430 790 tgl 15 0 empty empty empty 17 7 0 10 #fcfcfc #000000
#000000 0 1;
#X floatatom 510 720 5 0 0 0 - - -, f 5;
#X floatatom 588 638 5 0 0 0 - - -, f 5;
#X msg 670 560 0 0;
#N canvas 0 22 450 300 prepend-set 0;
#X obj 40 80 list prepend set;
#X obj 40 110 list trim;
#X obj 13 26 inlet;
#X obj 13 183 outlet;
#X connect 0 0 1 0;
#X connect 1 0 3 0;
#X connect 2 0 0 0;
#X restore 670 510 pd prepend-set;
#X obj 430 470 route active relativepos distance coords, f 46;
#X obj 90 480 lvn.hyperstave 4;
#X floatatom 120 410 5 0 0 0 - - -, f 5;
#X msg 120 440 hue \$1;
#X text 460 790 useful for enabling/disbaling subpatch;
#X text 550 720 useful for controlling embedded hyperstaves \, and
spatial panning, f 64;
#X text 638 638 useful for volume automation;
#X text 710 560 useful for reusable generative algorithms;
#X obj 430 890 switch~;
#X obj 430 860 tgl 15 0 empty empty empty 17 7 0 10 #fcfcfc #000000
#000000 0 1;
#X floatatom 540 870 5 0 0 0 - - -, f 5;
#X text 458 768 ACTIVE;
#X text 548 698 RELATIVEPOS;
#X text 638 618 DISTANCE;
#X text 710 540 COORDS;
#N canvas 672 127 450 300 smooth-switch 0;
#X obj 40 110 line;
#X msg 40 80 \$1 750;
#X obj 40 150 > 0;
#X obj 40 180 change;
#X obj 40 40 inlet;
#X obj 90 180 outlet;
#X obj 40 210 outlet;
#X connect 0 0 2 0;
#X connect 0 0 5 0;
#X connect 1 0 0 0;
#X connect 2 0 3 0;
#X connect 3 0 6 0;
#X connect 4 0 1 0;
#X restore 430 830 pd smooth-switch;
#X text 580 870 👈 use to smoothly fade subpatch;
#X msg 320 220 message \$1;
#X text 410 100 control stave toggle;
#X text 410 160 control stave slider;
#X text 410 200 all other messages are forward to parent hyperstave
and are output from its bottom right outlet, f 35;
#X text 370 360 local send and receives are local to this subpatch
, f 26;
#X obj 430 430 lvn.localreceive stave-info;
#X obj 270 310 lvn.localsend stave-info;
#X text 90 100 communicates with parent hyperstave, f 16;
#X text 100 330 communicates with child hyperstave, f 16;
#X connect 0 0 1 0;
#X connect 1 0 13 0;
#X connect 1 1 35 0;
#X connect 2 0 29 0;
#X connect 3 0 5 0;
#X connect 4 0 6 0;
#X connect 5 0 1 1;
#X connect 6 0 1 1;
#X connect 7 0 27 0;
#X connect 11 0 10 0;
#X connect 12 0 7 0;
#X connect 12 1 8 0;
#X connect 12 2 9 0;
#X connect 12 3 11 0;
#X connect 14 0 15 0;
#X connect 15 0 13 0;
#X connect 21 0 20 0;
#X connect 27 0 21 0;
#X connect 27 1 22 0;
#X connect 29 0 1 1;
#X connect 34 0 12 0;
#X restore 300 810 pd still;
#N canvas 615 23 450 300 walk 0;
#X obj 148 167 inlet;
#X restore 340 750 pd walk;
#N canvas 615 23 450 300 move 0;
#X obj 148 167 inlet;
#X restore 320 780 pd move;
#N canvas 615 23 450 300 jog 0;
#X obj 148 167 inlet;
#X restore 360 720 pd jog;
#N canvas 615 23 450 300 sprint 0;
#X obj 148 167 inlet;
#X restore 380 690 pd sprint;
#N canvas 615 23 450 300 cruise 0;
#X obj 148 167 inlet;
#X restore 400 660 pd cruise;
#N canvas 615 23 450 300 speed 0;
#X obj 148 167 inlet;
#X restore 420 630 pd speed;
#X obj 360 360 loadbang;
#X obj 40 50 cnv 3 297 8 empty \$0cvs0 -=ELEVON-ONE=- 23 -3 0 30 #ff9999
#000000 0;
#X obj 40 210 declare -path ./sketches;
#X obj 560 160 sketch001;
#X obj 560 130 tgl 15 0 empty empty empty 17 7 0 10 #fcfcfc #000000
#000000 0 1;
#X obj 40 190 declare -path ./samples;
#X text 500 460 0.1;
#X text 500 440 0;
#X text 500 480 1;
#X text 500 500 2;
#X text 500 520 7;
#X text 500 540 15;
#X text 500 560 30;
#X text 500 420 m/s;
#X obj 40 230 declare -path ./templates;
#X obj 300 160 metavoice;
#X obj 300 190 stave-subpatch;
#X text 40 100 Libraries and Assets;
#X text 300 100 Templates;
#X text 560 100 Sketches;
#X text 60 330 enable gyrOSC (port 9999), f 13;
#X text 80 770 ↗️;
#N canvas 495 23 450 300 get-version 0;
#X msg 40 110 l2ork_version;
#X obj 40 135 pdinfo;
#X obj 40 160 makefilename Pd-l2ork-%s;
#X msg 40 185 label \$1;
#X obj 40 80 bng 15 250 50 0 empty empty get\ PD\ version 17 7 0 10
#fcfcfc #000000 #000000;
#X obj 40 210 s \$0-version-text;
#X obj 40 50 inlet;
#X connect 0 0 1 0;
#X connect 1 0 2 0;
#X connect 2 0 3 0;
#X connect 3 0 5 0;
#X connect 4 0 0 0;
#X connect 6 0 4 0;
#X coords 0 -1 1 1 110 15 2 40 80;
#X restore 40 290 pd get-version;
#X obj 640 160 sketch002;
#X obj 640 130 tgl 15 0 empty empty empty 17 7 0 10 #fcfcfc #000000
#000000 0 1;
#X obj 720 160 metavoice001;
#X text 1610 1810 🐉;
#X obj 720 130 tgl 15 0 empty empty empty 17 7 0 10 #fcfcfc #000000
#000000 0 1;
#X msg 742 321 amp 1;
#X obj 560 220 sketch003;
#X obj 560 190 tgl 15 0 empty empty empty 17 7 0 10 #fcfcfc #000000
#000000 0 1;
#X obj 300 130 sketch;
#X connect 10 0 11 0;
#X connect 12 0 13 0;
#X connect 12 1 13 1;
#X connect 12 2 13 2;
#X connect 12 3 13 3;
#X connect 13 0 8 0;
#X connect 13 1 8 1;
#X connect 13 2 8 2;
#X connect 13 3 8 3;
#X connect 14 0 21 0;
#X connect 15 0 14 0;
#X connect 16 0 14 0;
#X connect 17 0 16 0;
#X connect 21 0 22 0;
#X connect 21 1 24 0;
#X connect 21 2 23 0;
#X connect 21 3 25 0;
#X connect 21 4 26 0;
#X connect 21 5 27 0;
#X connect 21 6 28 0;
#X connect 29 0 15 0;
#X connect 33 0 32 0;
#X connect 53 0 52 0;
#X connect 56 0 54 0;
#X connect 57 0 12 3;
#X connect 59 0 58 0;
