#N struct text float x float y text t;
#N canvas 0 23 1680 1005 12;
#X declare -path ./elevon;
#X declare -path ./bop;
#X declare -path ./subpatches;
#X declare -path ./sketches;
#X declare -path ./samples;
#X declare -path ./templates;
#X obj 560 100 cnv 15 250 20 empty empty empty 20 12 0 14 #e0e0e0 #404040
0;
#X obj 300 100 cnv 15 250 20 empty empty empty 20 12 0 14 #e0e0e0 #404040
0;
#X obj 40 100 cnv 15 250 20 empty empty empty 20 12 0 14 #e0e0e0 #404040
0;
#X obj 40 270 cnv 15 240 15 empty \$0-version-text Pd-l2ork-2.17.0\ 20210829-rev.e47b7c65
5 6 0 10 #e0e0e0 #404040 0;
#X obj 40 130 declare -path ./elevon;
#X obj 40 150 declare -path ./bop;
#X obj 540 610 bop;
#A saved 248;
#X obj 40 170 declare -path ./subpatches;
#X obj 540 440 bop.receive;
#A saved master;
#X obj 540 510 bop.mix;
#A saved 0 1.00019 0;
#X obj 1320 470 lvn.hyperstave 7;
#X msg 1380 430 connect 0;
#X msg 1320 430 hue \$1;
#X obj 1320 640 route 0 1 2 3 4 5 6, f 20;
#N canvas 178 23 1324 942 still 0;
#X obj 90 160 inlet;
#X obj 90 260 lvn.stave;
#X floatatom 320 190 5 0 0 0 - - -, f 5;
#X floatatom 280 70 5 0 0 0 - - -, f 5;
#X floatatom 300 130 5 0 0 0 - - -, f 5;
#X msg 280 100 button \$1;
#X msg 300 160 playhead \$1;
#X obj 430 790 tgl 15 0 empty empty empty 17 7 0 10 #fcfcfc #000000
#000000 0 1;
#X floatatom 510 720 5 0 0 0 - - -, f 5;
#X floatatom 588 638 5 0 0 0 - - -, f 5;
#X msg 670 560 0 0;
#N canvas 0 22 450 300 prepend-set 0;
#X obj 40 80 list prepend set;
#X obj 40 110 list trim;
#X obj 13 26 inlet;
#X obj 13 183 outlet;
#X connect 0 0 1 0;
#X connect 1 0 3 0;
#X connect 2 0 0 0;
#X restore 670 510 pd prepend-set;
#X obj 430 470 route active relativepos distance coords, f 46;
#X obj 90 480 lvn.hyperstave 4;
#X floatatom 120 410 5 0 0 0 - - -, f 5;
#X msg 120 440 hue \$1;
#X text 460 790 useful for enabling/disbaling subpatch;
#X text 550 720 useful for controlling embedded hyperstaves \, and
spatial panning, f 64;
#X text 638 638 useful for volume automation;
#X text 710 560 useful for reusable generative algorithms;
#X obj 430 890 switch~;
#X obj 430 860 tgl 15 0 empty empty empty 17 7 0 10 #fcfcfc #000000
#000000 0 1;
#X floatatom 540 870 5 0 0 0 - - -, f 5;
#X text 458 768 ACTIVE;
#X text 548 698 RELATIVEPOS;
#X text 638 618 DISTANCE;
#X text 710 540 COORDS;
#N canvas 672 127 450 300 smooth-switch 0;
#X obj 40 110 line;
#X msg 40 80 \$1 750;
#X obj 40 150 > 0;
#X obj 40 180 change;
#X obj 40 40 inlet;
#X obj 90 180 outlet;
#X obj 40 210 outlet;
#X connect 0 0 2 0;
#X connect 0 0 5 0;
#X connect 1 0 0 0;
#X connect 2 0 3 0;
#X connect 3 0 6 0;
#X connect 4 0 1 0;
#X restore 430 830 pd smooth-switch;
#X text 580 870 👈 use to smoothly fade subpatch;
#X msg 320 220 message \$1;
#X text 410 100 control stave toggle;
#X text 410 160 control stave slider;
#X text 410 200 all other messages are forward to parent hyperstave
and are output from its bottom right outlet, f 35;
#X text 370 360 local send and receives are local to this subpatch
, f 26;
#X obj 430 430 lvn.localreceive stave-info;
#X obj 270 310 lvn.localsend stave-info;
#X text 90 100 communicates with parent hyperstave, f 16;
#X text 100 330 communicates with child hyperstave, f 16;
#X connect 0 0 1 0;
#X connect 1 0 13 0;
#X connect 1 1 35 0;
#X connect 2 0 29 0;
#X connect 3 0 5 0;
#X connect 4 0 6 0;
#X connect 5 0 1 1;
#X connect 6 0 1 1;
#X connect 7 0 27 0;
#X connect 11 0 10 0;
#X connect 12 0 7 0;
#X connect 12 1 8 0;
#X connect 12 2 9 0;
#X connect 12 3 11 0;
#X connect 14 0 15 0;
#X connect 15 0 13 0;
#X connect 21 0 20 0;
#X connect 27 0 21 0;
#X connect 27 1 22 0;
#X connect 29 0 1 1;
#X connect 34 0 12 0;
#X restore 1320 850 pd still;
#N canvas 615 23 450 300 walk 0;
#X obj 148 167 inlet;
#X restore 1360 790 pd walk;
#N canvas 615 23 450 300 move 0;
#X obj 148 167 inlet;
#X restore 1340 820 pd move;
#N canvas 615 23 450 300 jog 0;
#X obj 148 167 inlet;
#X restore 1380 760 pd jog;
#N canvas 615 23 450 300 sprint 0;
#X obj 148 167 inlet;
#X restore 1400 730 pd sprint;
#N canvas 615 23 450 300 cruise 0;
#X obj 148 167 inlet;
#X restore 1420 700 pd cruise;
#N canvas 615 23 450 300 speed 0;
#X obj 148 167 inlet;
#X restore 1440 670 pd speed;
#X obj 1380 400 loadbang;
#X obj 40 50 cnv 3 297 8 empty \$0cvs0 -=ELEVON-ONE=- 23 -3 0 30 #ff9999
#000000 0;
#X obj 40 210 declare -path ./sketches;
#X obj 560 160 sketch001;
#X obj 560 130 tgl 15 0 empty empty empty 17 7 0 10 #fcfcfc #000000
#000000 0 1;
#X obj 40 190 declare -path ./samples;
#X text 1520 500 0.1;
#X text 1520 480 0;
#X text 1520 520 1;
#X text 1520 540 2;
#X text 1520 560 7;
#X text 1520 580 15;
#X text 1520 600 30;
#X text 1520 460 m/s;
#X obj 40 230 declare -path ./templates;
#X obj 300 160 metavoice;
#X obj 300 190 stave-subpatch;
#X text 40 100 Libraries and Assets;
#X text 300 100 Templates;
#X text 560 100 Sketches;
#N canvas 495 23 450 300 get-version 0;
#X msg 40 110 l2ork_version;
#X obj 40 135 pdinfo;
#X obj 40 160 makefilename Pd-l2ork-%s;
#X msg 40 185 label \$1;
#X obj 40 80 bng 15 250 50 0 empty empty get\ PD\ version 17 7 0 10
#fcfcfc #000000 #000000;
#X obj 40 210 s \$0-version-text;
#X obj 40 50 inlet;
#X connect 0 0 1 0;
#X connect 1 0 2 0;
#X connect 2 0 3 0;
#X connect 3 0 5 0;
#X connect 4 0 0 0;
#X connect 6 0 4 0;
#X coords 0 -1 1 1 110 15 2 40 80;
#X restore 40 290 pd get-version;
#X obj 640 160 sketch002;
#X obj 640 130 tgl 15 0 empty empty empty 17 7 0 10 #fcfcfc #000000
#000000 0 1;
#X obj 720 160 metavoice001;
#X text 1610 1810 🐉;
#X obj 720 130 tgl 15 0 empty empty empty 17 7 0 10 #fcfcfc #000000
#000000 0 1;
#X msg 682 401 amp 1;
#X obj 560 220 sketch003;
#X obj 560 190 tgl 15 0 empty empty empty 17 7 0 10 #fcfcfc #000000
#000000 0 1;
#X obj 300 130 sketch;
#N canvas 615 23 1008 772 map-groundspeed 0;
#X obj 40 80 moses 0.1;
#X obj 250 140 moses 1;
#X obj 470 200 moses 2;
#X obj 670 260 moses 7;
#X obj 870 330 moses 15;
#X obj 1080 400 moses 30;
#X obj 40 450 sub.bop.util.scale 0 0.1 0 1;
#X obj 250 450 sub.bop.util.scale 0.1 1 1 2;
#X obj 470 450 sub.bop.util.scale 1 2 2 3;
#X obj 670 450 sub.bop.util.scale 2 7 3 4;
#X obj 870 450 sub.bop.util.scale 7 15 4 5;
#X obj 1080 450 sub.bop.util.scale 15 30 5 6;
#X obj 1300 450 sub.bop.util.scale 30 60 6 7;
#X obj 40 510 / 7;
#X obj 13 26 inlet;
#X obj 40 610 outlet;
#X obj 40 570 clip 0 1;
#X text 50 150 TODO: exponential scaling from still to moving, f 13
;
#X connect 0 0 6 0;
#X connect 0 1 1 0;
#X connect 1 0 7 0;
#X connect 1 1 2 0;
#X connect 2 0 8 0;
#X connect 2 1 3 0;
#X connect 3 0 9 0;
#X connect 3 1 4 0;
#X connect 4 0 10 0;
#X connect 4 1 5 0;
#X connect 5 0 11 0;
#X connect 5 1 12 0;
#X connect 6 0 13 0;
#X connect 7 0 13 0;
#X connect 8 0 13 0;
#X connect 9 0 13 0;
#X connect 10 0 13 0;
#X connect 11 0 13 0;
#X connect 12 0 13 0;
#X connect 13 0 16 0;
#X connect 14 0 0 0;
#X connect 16 0 15 0;
#X restore 1320 370 pd map-groundspeed;
#X obj 40 430 telemetry;
#X obj 1320 340 r gs;
#X obj 330 931 r pitch;
#X obj 330 1011 r roll;
#X obj 330 1090 r yaw;
#X floatatom 330 956 5 0 0 0 - - -, f 5;
#X floatatom 330 1036 5 0 0 0 - - -, f 5;
#X floatatom 330 1115 7 0 0 0 - - -, f 7;
#X obj 330 980 hsl 128 15 -180 180 0 0 empty empty empty -2 -8 0 10
#fcfcfc #000000 #000000 0 1;
#X obj 330 1060 hsl 128 15 -180 180 0 0 empty empty empty -2 -8 0 10
#fcfcfc #000000 #000000 0 1;
#X obj 330 1139 hsl 128 15 0 360 0 0 empty empty empty -2 -8 0 10 #fcfcfc
#000000 #000000 0 1;
#X obj 400 931 r inv;
#X obj 400 956 tgl 15 0 empty empty empty 17 7 0 10 #fcfcfc #000000
#000000 0 1;
#X msg 780 550 bpm \$1;
#X msg 950 400 167.5, f 7;
#X msg 1020 400 88;
#X msg 1160 480 110;
#X floatatom 780 360 5 0 0 0 - - -, f 5;
#X msg 780 390 \$1;
#X msg 1060 400 55;
#X text 1260 250 I have calculated velocity brackets that correlate
to different human-scale velocities, f 41;
#X text 70 340 The composition patch can receive live sensor data \,
or playback a log of a previous session. Video recordings can be syncronished
with data playback, f 41;
#X text 600 270 At this stage of the composition process I have sketches
that layer and all work at the same discrete tempos \, at the same
time., f 47;
#X text 960 160 Tempo will be mapped to velocity to approximate temporal
musical events being evenly distributed in space., f 41;
#X text 360 900 I will likely add orientation offsets.;
#X text 830 660 Polytemporal superimposition is a key compositional
feature.;
#X msg 1060 370 walk;
#X msg 1110 370 move;
#X msg 1100 400 5;
#X msg 1020 370 jog;
#X msg 950 370 sprint;
#X msg 880 370 cruise;
#X msg 880 400 333, f 7;
#X obj 820 400 int;
#X obj 790 449 change;
#X connect 8 0 9 0;
#X connect 8 1 9 1;
#X connect 8 2 9 2;
#X connect 8 3 9 3;
#X connect 9 0 6 0;
#X connect 9 1 6 1;
#X connect 9 2 6 2;
#X connect 9 3 6 3;
#X connect 10 0 13 0;
#X connect 11 0 10 0;
#X connect 12 0 10 0;
#X connect 13 0 14 0;
#X connect 13 1 16 0;
#X connect 13 2 15 0;
#X connect 13 3 17 0;
#X connect 13 4 18 0;
#X connect 13 5 19 0;
#X connect 13 6 20 0;
#X connect 21 0 11 0;
#X connect 25 0 24 0;
#X connect 43 0 42 0;
#X connect 46 0 44 0;
#X connect 47 0 8 3;
#X connect 49 0 48 0;
#X connect 51 0 12 0;
#X connect 53 0 51 0;
#X connect 54 0 57 0;
#X connect 55 0 58 0;
#X connect 56 0 59 0;
#X connect 57 0 60 0;
#X connect 58 0 61 0;
#X connect 59 0 62 0;
#X connect 63 0 64 0;
#X connect 65 0 6 3;
#X connect 66 0 65 0;
#X connect 67 0 65 0;
#X connect 68 0 65 0;
#X connect 69 0 70 0;
#X connect 70 0 85 0;
#X connect 71 0 65 0;
#X connect 78 0 71 0;
#X connect 79 0 80 0;
#X connect 80 0 65 0;
#X connect 81 0 67 0;
#X connect 82 0 66 0;
#X connect 83 0 84 0;
#X connect 84 0 65 0;
#X connect 85 0 86 0;
#X connect 86 0 65 0;
