#N canvas 0 23 1680 1005 12;
#X declare -path ./elevon;
#X declare -path ./bop;
#X declare -path ./subpatches;
#X obj 230 30 cnv 15 107 59 empty empty empty 20 12 0 14 #f5dcf2 #404040
0;
#X obj 20 100 cnv 15 328 69 empty empty empty 20 12 0 14 #dff7f1 #404040
0;
#X obj 20 20 declare -path ./elevon;
#X obj 20 45 declare -path ./bop;
#X obj 20 180 lvn.telemetry;
#X obj 780 200 bop;
#A saved 100;
#X obj 20 74 declare -path ./subpatches;
#X obj 30 110 tgl 15 0 empty empty empty 17 7 0 10 #fcfcfc #000000
#000000 0 1;
#X text 1610 1810 comment;
#X obj 30 140 gyrosc2elevon;
#X text 50 110 receive realtime from gyrOSC (port 9999), f 41;
#X obj 780 480 bop.noteslider;
#A saved 3.31193 1 0;
#X obj 780 760 bop.rhodes;
#A saved 1;
#X obj 1040 1040 bop.distortion;
#A saved 0.676813 1 0.451196 1.67283 0.36413;
#X obj 1040 1270 bop.send;
#A saved master;
#X obj 780 40 bop.receive;
#A saved master;
#X obj 1040 1170 bop.mix;
#A saved 0 0.346784 0;
#X obj 1040 700 bop.synth;
#A saved 0.01 0.875 0.456522 0 0.646739 0.657609 0.657609 1 0.01 0.01
0.0234188 1 0 0.01 0.0460303;
#X obj 1040 480 bop.euclidean;
#A saved 16.4348 4.76087 0 4 4.56548 6 2.49412 0 1 125.488;
#X obj 1260 480 bop.euclidean;
#A saved 12.7826 5.54348 0 4 4.56548 1 3.6596 0 1 60.4762;
#X obj 780 340 bop.ramp;
#A saved 24 5.9 noteslider 0 1 0;
#X obj 780 580 bop.notefx;
#A saved 7.17073 -2.78049 0 44.1739 71.7826 3.01875 0;
#X obj 780 920 bop.reverb;
#A saved 0.959511 0.3125 2 1.25 0.01 0 0;
#X obj 780 1090 bop.mix;
#A saved 0 0.369179 0;
#X obj 780 1190 bop.send;
#A saved master;
#X obj 780 100 bop.mix;
#A saved 0 1.02597 0;
#X obj 1000 100 bop.palette;
#X obj 780 820 bop.filter;
#A saved 1843.76 1 0.603261;
#X obj 200 300 lvn.hyperstave 7;
#X msg 230 270 connect 0;
#X msg 200 230 hue \$1;
#X floatatom 200 200 5 0 0 0 - - -, f 5;
#X text 240 30 X = forward;
#X text 240 50 Y = right;
#X text 240 70 Z = up;
#X obj 200 490 route 0 1 2 3 4 5 6, f 20;
#N canvas 615 23 450 300 still 0;
#X obj 148 167 inlet;
#X restore 200 710 pd still;
#N canvas 615 23 450 300 walk 0;
#X obj 148 167 inlet;
#X restore 240 650 pd walk;
#N canvas 615 23 450 300 move 0;
#X obj 148 167 inlet;
#X restore 220 680 pd move;
#N canvas 615 23 450 300 jog 0;
#X obj 148 167 inlet;
#X restore 260 620 pd jog;
#N canvas 615 23 450 300 sprint 0;
#X obj 148 167 inlet;
#X restore 280 590 pd sprint;
#N canvas 615 23 450 300 cruise 0;
#X obj 148 167 inlet;
#X restore 300 560 pd cruise;
#N canvas 615 23 450 300 speed 0;
#X obj 148 167 inlet;
#X restore 320 530 pd speed;
#X msg 1140 431 note 6;
#X msg 1350 429 note 1;
#X msg 1200 430 note 11;
#X msg 1400 430 note 6;
#X obj 1140 370 bng 15 250 50 0 empty empty empty 17 7 0 10 #fcfcfc
#000000 #000000;
#X obj 1350 370 bng 15 250 50 0 empty empty empty 17 7 0 10 #fcfcfc
#000000 #000000;
#X connect 7 0 9 0;
#X connect 11 2 21 2;
#X connect 12 0 27 0;
#X connect 12 1 27 1;
#X connect 12 2 27 2;
#X connect 12 3 27 3;
#X connect 13 0 16 0;
#X connect 13 1 16 1;
#X connect 13 2 16 2;
#X connect 13 3 16 3;
#X connect 15 0 25 0;
#X connect 15 1 25 1;
#X connect 15 2 25 2;
#X connect 15 3 25 3;
#X connect 16 0 14 0;
#X connect 16 1 14 1;
#X connect 17 0 13 0;
#X connect 17 1 13 1;
#X connect 18 2 17 2;
#X connect 19 2 17 2;
#X connect 20 3 11 3;
#X connect 21 2 12 2;
#X connect 22 0 23 0;
#X connect 22 1 23 1;
#X connect 22 2 23 2;
#X connect 22 3 23 3;
#X connect 23 0 24 0;
#X connect 23 1 24 1;
#X connect 25 0 5 0;
#X connect 25 1 5 1;
#X connect 25 2 5 2;
#X connect 25 3 5 3;
#X connect 27 0 22 0;
#X connect 27 1 22 1;
#X connect 27 2 22 2;
#X connect 27 3 22 3;
#X connect 28 0 35 0;
#X connect 29 0 28 0;
#X connect 30 0 28 0;
#X connect 31 0 30 0;
#X connect 35 0 36 0;
#X connect 35 1 38 0;
#X connect 35 2 37 0;
#X connect 35 3 39 0;
#X connect 35 4 40 0;
#X connect 35 5 41 0;
#X connect 35 6 42 0;
#X connect 43 0 18 3;
#X connect 44 0 19 3;
#X connect 45 0 18 3;
#X connect 46 0 19 3;
#X connect 47 0 43 0;
#X connect 47 0 44 0;
#X connect 48 0 45 0;
#X connect 48 0 46 0;
