#N struct text float x float y text t;
#N canvas 0 23 1400 1005 12;
#X declare -path ./elevon;
#X declare -path ./bop;
#X declare -path ./subpatches;
#X declare -path ./sketches;
#X declare -path ./samples;
#X declare -path ./templates;
#X obj 650 940 cnv 15 142 20 empty empty empty 20 12 0 14 #e0e0e0 #404040
0;
#X obj 910 940 cnv 15 250 20 empty empty empty 20 12 0 14 #e0e0e0 #404040
0;
#X obj 450 940 cnv 15 142 20 empty empty empty 20 12 0 14 #e0e0e0 #404040
0;
#X obj 100 1400 cnv 15 260 20 empty empty empty 20 12 0 14 #e0e0e0
#404040 0;
#X obj 100 1570 cnv 15 240 15 empty \$0-version-text Pd-l2ork-2.17.0\ 20210829-rev.e47b7c65
5 6 0 10 #e0e0e0 #404040 0;
#X obj 100 1430 declare -path ./elevon;
#X obj 100 1450 declare -path ./bop;
#X obj 100 1470 declare -path ./subpatches;
#X obj 900 500 bop.receive;
#A saved master;
#X obj 900 560 bop.mix;
#A saved 0 0.920127 0;
#X obj 520 500 lvn.hyperstave 7;
#X msg 580 460 connect 0;
#X msg 520 460 hue \$1;
#X obj 520 670 route 0 1 2 3 4 5 6, f 20;
#N canvas 178 23 1324 942 still 0;
#X obj 90 160 inlet;
#X obj 90 260 lvn.stave;
#X floatatom 320 190 5 0 0 0 - - -, f 5;
#X floatatom 280 70 5 0 0 0 - - -, f 5;
#X floatatom 300 130 5 0 0 0 - - -, f 5;
#X msg 280 100 button \$1;
#X msg 300 160 playhead \$1;
#X obj 430 790 tgl 15 0 empty empty empty 17 7 0 10 #fcfcfc #000000
#000000 0 1;
#X floatatom 510 720 5 0 0 0 - - -, f 5;
#X floatatom 588 638 5 0 0 0 - - -, f 5;
#X msg 670 560 0 0;
#N canvas 0 22 450 300 prepend-set 0;
#X obj 40 80 list prepend set;
#X obj 40 110 list trim;
#X obj 13 26 inlet;
#X obj 13 183 outlet;
#X connect 0 0 1 0;
#X connect 1 0 3 0;
#X connect 2 0 0 0;
#X restore 670 510 pd prepend-set;
#X obj 430 470 route active relativepos distance coords, f 46;
#X obj 90 480 lvn.hyperstave 4;
#X floatatom 120 410 5 0 0 0 - - -, f 5;
#X msg 120 440 hue \$1;
#X text 460 790 useful for enabling/disbaling subpatch;
#X text 550 720 useful for controlling embedded hyperstaves \, and
spatial panning, f 64;
#X text 638 638 useful for volume automation;
#X text 710 560 useful for reusable generative algorithms;
#X obj 430 890 switch~;
#X obj 430 860 tgl 15 0 empty empty empty 17 7 0 10 #fcfcfc #000000
#000000 0 1;
#X floatatom 540 870 5 0 0 0 - - -, f 5;
#X text 458 768 ACTIVE;
#X text 548 698 RELATIVEPOS;
#X text 638 618 DISTANCE;
#X text 710 540 COORDS;
#N canvas 672 127 450 300 smooth-switch 0;
#X obj 40 110 line;
#X msg 40 80 \$1 750;
#X obj 40 150 > 0;
#X obj 40 180 change;
#X obj 40 40 inlet;
#X obj 90 180 outlet;
#X obj 40 210 outlet;
#X connect 0 0 2 0;
#X connect 0 0 5 0;
#X connect 1 0 0 0;
#X connect 2 0 3 0;
#X connect 3 0 6 0;
#X connect 4 0 1 0;
#X restore 430 830 pd smooth-switch;
#X text 580 870 👈 use to smoothly fade subpatch;
#X msg 320 220 message \$1;
#X text 410 100 control stave toggle;
#X text 410 160 control stave slider;
#X text 410 200 all other messages are forward to parent hyperstave
and are output from its bottom right outlet, f 35;
#X text 370 360 local send and receives are local to this subpatch
, f 26;
#X obj 430 430 lvn.localreceive stave-info;
#X obj 270 310 lvn.localsend stave-info;
#X text 90 100 communicates with parent hyperstave, f 16;
#X text 100 330 communicates with child hyperstave, f 16;
#X text 680 290 AT SLOW SPEEDS - groundspeed should be directly tied
to bpm;
#X connect 0 0 1 0;
#X connect 1 0 13 0;
#X connect 1 1 35 0;
#X connect 2 0 29 0;
#X connect 3 0 5 0;
#X connect 4 0 6 0;
#X connect 5 0 1 1;
#X connect 6 0 1 1;
#X connect 7 0 27 0;
#X connect 11 0 10 0;
#X connect 12 0 7 0;
#X connect 12 1 8 0;
#X connect 12 2 9 0;
#X connect 12 3 11 0;
#X connect 14 0 15 0;
#X connect 15 0 13 0;
#X connect 21 0 20 0;
#X connect 27 0 21 0;
#X connect 27 1 22 0;
#X connect 29 0 1 1;
#X connect 34 0 12 0;
#X restore 520 880 pd still;
#N canvas 615 23 450 300 walk 0;
#X obj 148 167 inlet;
#X restore 560 820 pd walk;
#N canvas 615 23 450 300 move 0;
#X obj 148 167 inlet;
#X restore 540 850 pd move;
#N canvas 615 23 450 300 jog 0;
#X obj 148 167 inlet;
#X restore 580 790 pd jog;
#N canvas 615 23 450 300 sprint 0;
#X obj 148 167 inlet;
#X restore 600 760 pd sprint;
#N canvas 615 23 450 300 cruise 0;
#X obj 148 167 inlet;
#X restore 620 730 pd cruise;
#N canvas 615 23 450 300 speed 0;
#X obj 148 167 inlet;
#X restore 640 700 pd speed;
#X obj 580 430 loadbang;
#X obj 80 50 cnv 3 297 8 empty \$0cvs0 -=ELEVON-ONE=- 23 -3 0 30 #ff9999
#000000 0;
#X obj 100 1510 declare -path ./sketches;
#X obj 910 1000 sketch001;
#X obj 910 970 tgl 15 0 empty empty empty 17 7 0 10 #fcfcfc #000000
#000000 0 1;
#X obj 100 1490 declare -path ./samples;
#X text 720 530 0.1;
#X text 720 510 0;
#X text 720 550 1;
#X text 720 570 2;
#X text 720 590 7;
#X text 720 610 15;
#X text 720 630 30;
#X text 720 490 m/s;
#X obj 100 1530 declare -path ./templates;
#X obj 450 1000 metavoice;
#X obj 450 1030 stave-subpatch;
#X text 100 1400 Libraries and Assets;
#X text 450 940 Templates;
#X text 910 940 Sketches;
#N canvas 495 23 450 300 get-version 0;
#X msg 40 110 l2ork_version;
#X obj 40 135 pdinfo;
#X obj 40 160 makefilename Pd-l2ork-%s;
#X msg 40 185 label \$1;
#X obj 40 80 bng 15 250 50 0 empty empty get\ PD\\\\\ version 17 7
0 10 #fcfcfc #000000 #000000;
#X obj 40 210 s \$0-version-text;
#X obj 40 50 inlet;
#X connect 0 0 1 0;
#X connect 1 0 2 0;
#X connect 2 0 3 0;
#X connect 3 0 5 0;
#X connect 4 0 0 0;
#X connect 6 0 4 0;
#X coords 0 -1 1 1 110 15 2 40 80;
#X restore 100 1590 pd get-version;
#X obj 910 1070 sketch002;
#X obj 910 1040 tgl 15 0 empty empty empty 17 7 0 10 #fcfcfc #000000
#000000 0 1;
#X obj 650 1000 metavoice001;
#X text 1630 1770 🐉;
#X obj 650 970 tgl 15 0 empty empty empty 17 7 0 10 #fcfcfc #000000
#000000 0 1;
#X obj 910 1140 sketch003;
#X obj 910 1110 tgl 15 0 empty empty empty 17 7 0 10 #fcfcfc #000000
#000000 0 1;
#X obj 450 970 sketch;
#N canvas 615 23 1008 772 map-groundspeed 0;
#X obj 40 80 moses 0.1;
#X obj 250 140 moses 1;
#X obj 470 200 moses 2;
#X obj 670 260 moses 7;
#X obj 870 330 moses 15;
#X obj 1080 400 moses 30;
#X obj 40 450 sub.bop.util.scale 0 0.1 0 1;
#X obj 250 450 sub.bop.util.scale 0.1 1 1 2;
#X obj 470 450 sub.bop.util.scale 1 2 2 3;
#X obj 670 450 sub.bop.util.scale 2 7 3 4;
#X obj 870 450 sub.bop.util.scale 7 15 4 5;
#X obj 1080 450 sub.bop.util.scale 15 30 5 6;
#X obj 1300 450 sub.bop.util.scale 30 60 6 7;
#X obj 40 510 / 7;
#X obj 40 610 outlet;
#X obj 40 570 clip 0 1;
#X text 50 150 TODO: exponential scaling from still to moving, f 13
;
#X obj 40 30 r gs;
#X connect 0 0 6 0;
#X connect 0 1 1 0;
#X connect 1 0 7 0;
#X connect 1 1 2 0;
#X connect 2 0 8 0;
#X connect 2 1 3 0;
#X connect 3 0 9 0;
#X connect 3 1 4 0;
#X connect 4 0 10 0;
#X connect 4 1 5 0;
#X connect 5 0 11 0;
#X connect 5 1 12 0;
#X connect 6 0 13 0;
#X connect 7 0 13 0;
#X connect 8 0 13 0;
#X connect 9 0 13 0;
#X connect 10 0 13 0;
#X connect 11 0 13 0;
#X connect 12 0 13 0;
#X connect 13 0 15 0;
#X connect 15 0 14 0;
#X connect 17 0 0 0;
#X restore 520 400 pd map-groundspeed;
#X obj 100 440 telemetry;
#X msg 1060 470 bpm \$1;
#X msg 960 430 167.5, f 7;
#X msg 1020 430 88;
#X floatatom 1140 400 7 0 0 0 - - -, f 7;
#X msg 1140 430 \$1;
#X msg 1060 430 55;
#X msg 1060 400 walk;
#X msg 1100 400 move;
#X msg 1100 430 5;
#X msg 1020 400 jog;
#X msg 960 400 sprint;
#X msg 900 400 cruise;
#X text 650 940 Voices;
#X msg 900 430 692.93;
#X text 100 350 This patch can receive live sensor data \, or playback
a log of a previous session. Video recordings can be syncronished with
log playback., f 38;
#X text 70 90 Elevon-One is a spatial metacomposition: a piece of music
arranged in physical space (in such a way as to) musically respond
to the movement of a solo-performer., f 48;
#X text 100 240 The composition exists as a Pure Data patch that receives
live or prerecorded motion data \, and leverages the *Bop* and *Elevon*
libraries to render a musical response., f 38;
#X text 490 110 Elevon is responsible for hierarchically arranging
the musical sketchs in an n-dimensional viirtual space., f 42;
#X text 490 200 The velocity brackets below are calculated to correlate
to different human-scale acitvities., f 42;
#X text 900 110 Bop is modular suite of music making tools \, providing
synthesis \, sequencing \, sample playback \, and audio processing.
, f 42;
#X text 750 1000 Orientation Mixer, f 20;
#X text 990 1000 Tempo-fluid transition, f 24;
#X text 990 1070 From walk to sprint, f 22;
#X text 990 1140 From move to walk;
#X obj 490 90 cnv 10 300 10 empty \$0cvs0 Elevon 1 -1 0 16 #bca8fc
#000000 0;
#X obj 900 90 cnv 10 300 10 empty \$0cvs0 Bop 1 -1 0 16 #a8caab #000000
0;
#X text 900 200 Bop sketches are created to work synchronously at a
set of discrete tempos. (Different positions along the unified time
spectrum)., f 42;
#X text 640 310 By mapping discrete tempos to velocity brackets \,
musical events are distributed approximately evenly in space. [This
needs a diagram], f 57;
#X obj 100 1030 hsl 249 15 0 360 0 0 empty empty empty -2 -8 0 10 #fcfcfc
#000000 #000000 0 1;
#X obj 100 1080 s h;
#X floatatom 100 1050 14 0 0 0 - - -, f 14;
#X obj 100 1000 cnv 15 260 20 empty empty empty 20 12 0 14 #e0e0e0
#404040 0;
#X text 100 1000 Manual Control;
#X obj 100 1120 hsl 260 15 0 60 0 0 empty empty empty -2 -8 0 10 #fcfcfc
#000000 #000000 0 1;
#X floatatom 100 1140 14 0 0 0 - - -, f 14;
#X obj 100 1170 s gs;
#X text 300 1050 Heading;
#X text 280 1140 Ground speed;
#X text 100 180 Listen loudly and in the background., f 38;
#X obj 900 660 bop \$0;
#A saved 110;
#X obj 910 1210 bop-scope-testing;
#X obj 910 1180 tgl 15 0 empty empty empty 17 7 0 10 #fcfcfc #000000
#000000 0 1;
#X connect 8 0 9 0;
#X connect 8 1 9 1;
#X connect 8 2 9 2;
#X connect 8 3 9 3;
#X connect 9 0 91 0;
#X connect 9 1 91 1;
#X connect 9 2 91 2;
#X connect 9 3 91 3;
#X connect 10 0 13 0;
#X connect 11 0 10 0;
#X connect 12 0 10 0;
#X connect 13 0 14 0;
#X connect 13 1 16 0;
#X connect 13 2 15 0;
#X connect 13 3 17 0;
#X connect 13 4 18 0;
#X connect 13 5 19 0;
#X connect 13 6 20 0;
#X connect 21 0 11 0;
#X connect 25 0 24 0;
#X connect 43 0 42 0;
#X connect 46 0 44 0;
#X connect 48 0 47 0;
#X connect 50 0 12 0;
#X connect 52 0 8 3;
#X connect 53 0 52 0;
#X connect 54 0 52 0;
#X connect 55 0 56 0;
#X connect 56 0 52 0;
#X connect 57 0 52 0;
#X connect 58 0 57 0;
#X connect 59 0 60 0;
#X connect 60 0 52 0;
#X connect 61 0 54 0;
#X connect 62 0 53 0;
#X connect 63 0 65 0;
#X connect 65 0 52 0;
#X connect 80 0 82 0;
#X connect 82 0 81 0;
#X connect 85 0 86 0;
#X connect 86 0 87 0;
#X connect 93 0 92 0;
