#N struct text float x float y text t;
#N canvas 656 23 1024 1005 12;
#X declare -path ./elevon;
#X declare -path ./bop;
#X declare -path ./subpatches;
#X declare -path ./sketches;
#X declare -path ./samples;
#X declare -path ./templates;
#X declare -path ./other;
#X obj 700 840 cnv 15 500 20 empty empty empty 20 12 0 14 #e0e0e0 #404040
0;
#X obj 30 1210 cnv 15 260 20 empty empty empty 20 12 0 14 #e0e0e0 #404040
0;
#X obj 30 1390 cnv 15 240 15 empty \$0-version-text Pd-l2ork-2.17.0\ 20210829-rev.e47b7c65
5 6 0 10 #e0e0e0 #404040 0;
#X obj 30 1240 declare -path ./elevon;
#X obj 30 1260 declare -path ./bop;
#X obj 30 1280 declare -path ./subpatches;
#X msg 410 110 hue \$1;
#N canvas 731 75 1149 942 still 0;
#X obj 90 160 inlet;
#X obj 90 260 lvn.stave;
#X floatatom 320 190 5 0 0 0 - - -, f 5;
#X floatatom 280 70 5 0 0 0 - - -, f 5;
#X floatatom 300 130 5 0 0 0 - - -, f 5;
#X msg 280 100 button \$1;
#X msg 300 160 playhead \$1;
#X obj 430 790 tgl 15 0 empty empty empty 17 7 0 10 #fcfcfc #000000
#000000 0 1;
#X floatatom 510 720 5 0 0 0 - - -, f 5;
#X floatatom 588 638 5 0 0 0 - - -, f 5;
#X msg 670 560 0 0;
#N canvas 0 22 450 300 prepend-set 0;
#X obj 40 80 list prepend set;
#X obj 40 110 list trim;
#X obj 13 26 inlet;
#X obj 13 183 outlet;
#X connect 0 0 1 0;
#X connect 1 0 3 0;
#X connect 2 0 0 0;
#X restore 670 510 pd prepend-set;
#X obj 430 470 route active relativepos distance coords, f 46;
#X obj 90 480 lvn.hyperstave 4;
#X floatatom 120 410 5 0 0 0 - - -, f 5;
#X msg 120 440 hue \$1;
#X text 460 790 useful for enabling/disbaling subpatch;
#X text 550 720 useful for controlling embedded hyperstaves \, and
spatial panning, f 64;
#X text 638 638 useful for volume automation;
#X text 710 560 useful for reusable generative algorithms;
#X obj 430 890 switch~;
#X obj 430 860 tgl 15 0 empty empty empty 17 7 0 10 #fcfcfc #000000
#000000 0 1;
#X floatatom 540 870 5 0 0 0 - - -, f 5;
#X text 458 768 ACTIVE;
#X text 548 698 RELATIVEPOS;
#X text 638 618 DISTANCE;
#X text 710 540 COORDS;
#N canvas 672 127 450 300 smooth-switch 0;
#X obj 40 110 line;
#X msg 40 80 \$1 750;
#X obj 40 150 > 0;
#X obj 40 180 change;
#X obj 40 40 inlet;
#X obj 90 180 outlet;
#X obj 40 210 outlet;
#X connect 0 0 2 0;
#X connect 0 0 5 0;
#X connect 1 0 0 0;
#X connect 2 0 3 0;
#X connect 3 0 6 0;
#X connect 4 0 1 0;
#X restore 430 830 pd smooth-switch;
#X text 580 870 👈 use to smoothly fade subpatch;
#X msg 320 220 message \$1;
#X text 410 100 control stave toggle;
#X text 410 160 control stave slider;
#X text 410 200 all other messages are forward to parent hyperstave
and are output from its bottom right outlet, f 35;
#X text 370 360 local send and receives are local to this subpatch
, f 26;
#X obj 430 430 lvn.localreceive stave-info;
#X obj 270 310 lvn.localsend stave-info;
#X text 90 100 communicates with parent hyperstave, f 16;
#X text 100 330 communicates with child hyperstave, f 16;
#X text 680 290 AT SLOW SPEEDS - groundspeed should be directly tied
to bpm;
#X connect 0 0 1 0;
#X connect 1 0 13 0;
#X connect 1 1 35 0;
#X connect 2 0 29 0;
#X connect 3 0 5 0;
#X connect 4 0 6 0;
#X connect 5 0 1 1;
#X connect 6 0 1 1;
#X connect 7 0 27 0;
#X connect 11 0 10 0;
#X connect 12 0 7 0;
#X connect 12 1 8 0;
#X connect 12 2 9 0;
#X connect 12 3 11 0;
#X connect 14 0 15 0;
#X connect 15 0 13 0;
#X connect 21 0 20 0;
#X connect 27 0 21 0;
#X connect 27 1 22 0;
#X connect 29 0 1 1;
#X connect 34 0 12 0;
#X restore 410 320 pd still;
#N canvas 615 23 450 300 walk 0;
#X obj 148 167 inlet;
#X restore 450 260 pd walk;
#N canvas 174 459 450 300 move 0;
#X obj 148 167 inlet;
#X obj 140 220 lvn.hyperstave 4;
#X connect 0 0 1 0;
#X restore 430 290 pd move;
#N canvas 615 23 450 300 jog 0;
#X obj 148 167 inlet;
#X restore 470 230 pd jog;
#N canvas 615 23 450 300 sprint 0;
#X obj 148 167 inlet;
#X restore 490 200 pd sprint;
#N canvas 615 23 450 300 cruise 0;
#X obj 148 167 inlet;
#X restore 510 170 pd cruise;
#N canvas 615 23 450 300 speed 0;
#X obj 148 167 inlet;
#X restore 530 140 pd speed;
#X obj 30 1320 declare -path ./sketches;
#X obj 450 1560 tgl 15 0 empty empty empty 17 7 0 10 #fcfcfc #000000
#000000 1 1;
#X obj 30 1300 declare -path ./samples;
#X text 610 180 0.1;
#X text 610 160 0;
#X text 610 200 1;
#X text 610 220 2;
#X text 610 240 7;
#X text 610 260 15;
#X text 610 280 30;
#X text 610 140 m/s;
#X obj 30 1340 declare -path ./templates;
#X text 30 1210 Libraries and Assets;
#X text 700 840 Sketches;
#N canvas 495 23 744 477 get-version 0;
#X msg 40 110 l2ork_version;
#X obj 40 135 pdinfo;
#X obj 40 160 makefilename Pd-l2ork-%s;
#X msg 40 185 label \$1;
#X obj 40 80 bng 15 250 50 0 empty empty get\ current\\\\\ PD\\\\\\\\\\\\\\\\\\\\\\\\\\\\\\\\\\\\\\\\\\\\\\\\\\\\\\\\\\\\\\\\\\\\\\\\\\\\\\\\\\\\\\\\\\\\\\\\\\\\\\\\\\\\\\\\\\\\\\\\\\\\*
17 7 0 10 #fcfcfc #000000 #000000;
#X obj 40 210 s \$0-version-text;
#X obj 40 50 inlet;
#X connect 0 0 1 0;
#X connect 1 0 2 0;
#X connect 2 0 3 0;
#X connect 3 0 5 0;
#X connect 4 0 0 0;
#X connect 6 0 4 0;
#X coords 0 -1 1 1 160 15 2 40 80;
#X restore 30 1410 pd get-version;
#X text 1700 2170 🐉;
#N canvas 840 23 840 1005 map-groundspeed 0;
#X obj 200 150 moses 0.1;
#X obj 410 210 moses 1;
#X obj 630 270 moses 2;
#X obj 830 330 moses 7;
#X obj 1030 400 moses 15;
#X obj 1240 470 moses 30;
#X obj 200 520 sub.bop.util.scale 0 0.1 0 1;
#X obj 410 520 sub.bop.util.scale 0.1 1 1 2;
#X obj 630 520 sub.bop.util.scale 1 2 2 3;
#X obj 830 520 sub.bop.util.scale 2 7 3 4;
#X obj 1030 520 sub.bop.util.scale 7 15 4 5;
#X obj 1240 520 sub.bop.util.scale 15 30 5 6;
#X obj 1460 520 sub.bop.util.scale 30 60 6 7;
#X obj 200 770 / 7;
#X obj 200 870 outlet;
#X obj 200 830 clip 0 1;
#X text 210 220 TODO: exponential scaling from still to moving, f
13;
#X obj 200 100 r gs;
#X text 240 100 It probably makes sense to lag this value to old the
composition at particular velocities, f 46;
#X obj 150 150 outlet;
#X obj 200 800 sub.bop.util.slide 1 100;
#X connect 0 0 6 0;
#X connect 0 1 1 0;
#X connect 1 0 7 0;
#X connect 1 1 2 0;
#X connect 2 0 8 0;
#X connect 2 1 3 0;
#X connect 3 0 9 0;
#X connect 3 1 4 0;
#X connect 4 0 10 0;
#X connect 4 1 5 0;
#X connect 5 0 11 0;
#X connect 5 1 12 0;
#X connect 6 0 13 0;
#X connect 7 0 13 0;
#X connect 8 0 13 0;
#X connect 9 0 13 0;
#X connect 10 0 13 0;
#X connect 11 0 13 0;
#X connect 12 0 13 0;
#X connect 13 0 20 0;
#X connect 15 0 14 0;
#X connect 17 0 0 0;
#X connect 17 0 19 0;
#X connect 20 0 15 0;
#X restore 410 40 pd map-groundspeed;
#X obj 30 280 telemetry;
#X msg 860 70 88;
#X msg 900 70 55;
#X msg 900 40 walk;
#X msg 980 40 move;
#X msg 980 70 5;
#X msg 860 40 jog;
#X msg 800 40 sprint;
#X msg 740 40 cruise;
#X text 470 1560 Tempo-fluid transition, f 23;
#X msg 940 70 40;
#X msg 1020 70 1.42;
#X msg 1020 40 still;
#X msg 950 150 bpm \$1;
#X floatatom 950 120 7 0 0 0 - - -, f 7;
#X msg 690 40 speed;
#X msg 430 1120 amp 1;
#X msg 440 1150 bpm 1.42;
#X msg 450 1180 bpm 44;
#X msg 800 70 172, f 7;
#X msg 740 70 344;
#X msg 690 70 688;
#X floatatom 410 80 9 0 0 0 - - -, f 9;
#X obj 950 190 s global-params;
#X msg 1010 150 play \$1;
#X obj 1010 120 tgl 15 0 empty empty empty 17 7 0 10 #fcfcfc #000000
#000000 0 1;
#X obj 450 1600 tempo-fluid;
#X obj 30 1360 declare -path ./other;
#X obj 850 1070 r gs;
#X msg 710 1250 bpm \$1;
#X msg 920 1280 rewind 1;
#X obj 1800 1321 r alt;
#X obj 1800 1361 sub.bop.util.scale 152.5 161 0 1;
#X msg 1800 1390 noteslider \$1;
#X obj 1120 1090 r alt;
#X msg 1060 1280 note \$1;
#X obj 1120 1160 int;
#X obj 1120 1190 change;
#X obj 1630 780 r h;
#X obj 1630 841 int;
#X obj 1630 870 change;
#X msg 1080 150 rewind 1;
#X obj 1030 891 r alt;
#X obj 1120 1130 sub.bop.util.scale 152.5 161 1 1000;
#X msg 1990 1130 notelist e2 e2 g2;
#X msg 1950 1050 notelist c2 d2 g2;
#X msg 1980 1090 notelist e2 b2 g2;
#X msg 1800 1440 notelist a1 e2 g2;
#X msg 1830 1480 notelist b1 d2 g2;
#X msg 1840 1520 notelist c2 d2 g2;
#X msg 1971 957 notelist c2 d2 b2;
#X msg 2011 987 notelist b1 d2 g2;
#X msg 2031 1017 notelist a1 e2 g2;
#X obj 1020 1111 int;
#X obj 1020 1141 change;
#X msg 930 1230 octave \$1;
#X floatatom 950 1161 5 0 0 0 - - -, f 5;
#X obj 1630 910 sel 0 1 2 3 4;
#X msg 2049 1182 notelist c2 e2 g2;
#X msg 2059 1222 notelist d2 f#2 g2;
#X msg 2159 1242 notelist e2 g2 g2;
#X msg 2119 1282 notelist b1 d2 g2;
#X msg 1940 740 notelist c2 d2 g2;
#X msg 1950 780 notelist d2 e2 a2;
#X msg 1970 810 notelist e2 f#2 b2;
#X msg 2010 840 notelist b1 e2 f#2;
#X obj 730 1770 tgl 15 0 empty empty empty 17 7 0 10 #fcfcfc #000000
#000000 0 1;
#X obj 1790 1280 s global-params;
#X obj 1030 1370 r global-params;
#X obj 1020 1440 route notelist;
#X msg 1012 1509 notelist \$1 \$2 \$3 \$2 \$3 \$2 \$1 \$2;
#X obj 660 1150 r global-params;
#X obj 628 1041 route notelist;
#X msg 610 1100 notelist \$1 \$2 \$1 \$1 \$3 \$1 \$2 \$2;
#X msg 563 1169 mode 0;
#X msg 826 1818 mode 2;
#X msg 2130 1070 notelist e1 b1 f#2;
#X msg 2130 1100 notelist c2 d2 g2;
#X msg 2130 1130 notelist g2 d2 g2;
#X msg 1724 485 notelist f2 a2 c3;
#X msg 1734 525 notelist f2 g2 b2;
#X msg 1754 555 notelist e2 g2 c2;
#X msg 1794 585 notelist e2 g2 b2;
#X msg 1760 860 notelist a1 d2 g2 c3;
#X msg 1240 570 notelist c3 b3 e4 d3 g3;
#X msg 1290 630 notelist d3 a3 f#3 d4;
#X msg 1210 530 notelist f#3 d3 a3 c#4;
#X msg 1260 600 notelist d3 a3 g3 b3;
#X obj 1020 1170 - 0;
#X obj 940 1020 bng 15 250 50 0 empty empty empty 17 7 0 10 #fcfcfc
#000000 #000000;
#X obj 420 2131 bop.out;
#A saved 1 0 0 0;
#X obj 450 2010 bop.mix;
#A saved 0 1.00019 0;
#X msg 740 1330 bpm \$1;
#X obj 850 1099 t f f;
#X obj 778 1278 * 0.5;
#X msg 490 530 notelist g1 d2 b2;
#X msg 600 620 notelist a1 d2 g2;
#X msg 410 630 notelist f1 c2 b2;
#X msg 500 690 notelist c2 e2 g2;
#X msg 610 780 notelist c2 f2 a2;
#X msg 420 790 notelist b1 d2 g2;
#X msg 1290 790 notelist c2 e2 g2;
#X msg 1400 880 notelist c2 f2 a2;
#X msg 1210 890 notelist b1 d2 g2;
#X obj 1630 812 sub.bop.util.scale 0 360 0 4;
#X obj 690 1900 route bars;
#X obj 680 1970 tgl 15 0 empty empty empty 17 7 0 10 #fcfcfc #000000
#000000 0 1;
#X obj 690 2010 tgl 23 0 empty empty empty 17 7 0 10 #fcfcfc #000000
#000000 0 1;
#X msg 1610 1120 notelist c3 e3 d3 f#3 b3;
#X msg 1690 1160 notelist g3 b3 a3 e4;
#X msg 1740 1200 notelist d3 f#3 e3 g3;
#X msg 1790 1240 notelist d3 f#3 b2 g3;
#X text 1430 570 primo;
#X obj 1020 1011 sub.bop.util.scale 152.5 161 -1 2;
#X msg 780 1560 amp 1;
#X obj 820 1160 * 180;
#X connect 15 0 57 0;
#X connect 30 1 53 0;
#X connect 32 0 45 0;
#X connect 33 0 45 0;
#X connect 34 0 33 0;
#X connect 35 0 36 0;
#X connect 36 0 45 0;
#X connect 37 0 32 0;
#X connect 38 0 50 0;
#X connect 39 0 51 0;
#X connect 41 0 45 0;
#X connect 42 0 45 0;
#X connect 43 0 42 0;
#X connect 44 0 54 0;
#X connect 45 0 44 0;
#X connect 46 0 52 0;
#X connect 47 0 57 2;
#X connect 48 0 57 2;
#X connect 49 0 57 2;
#X connect 50 0 45 0;
#X connect 51 0 45 0;
#X connect 52 0 45 0;
#X connect 53 0 6 0;
#X connect 55 0 54 0;
#X connect 56 0 55 0;
#X connect 57 0 122 0;
#X connect 57 1 122 1;
#X connect 57 2 136 0;
#X connect 57 2 122 3;
#X connect 59 0 124 0;
#X connect 60 0 57 2;
#X connect 61 0 57 2;
#X connect 62 0 63 0;
#X connect 63 0 64 0;
#X connect 65 0 74 0;
#X connect 66 0 57 2;
#X connect 67 0 68 0;
#X connect 68 0 66 0;
#X connect 69 0 135 0;
#X connect 70 0 71 0;
#X connect 71 0 88 0;
#X connect 72 0 54 0;
#X connect 73 0 144 0;
#X connect 74 0 67 0;
#X connect 84 0 85 0;
#X connect 84 0 87 0;
#X connect 85 0 119 0;
#X connect 86 0 57 2;
#X connect 88 0 139 0;
#X connect 88 1 140 0;
#X connect 88 2 141 0;
#X connect 88 3 142 0;
#X connect 99 0 100 0;
#X connect 100 0 101 0;
#X connect 102 0 57 2;
#X connect 105 0 57 2;
#X connect 119 0 86 0;
#X connect 120 0 84 0;
#X connect 122 0 121 0;
#X connect 122 1 121 1;
#X connect 124 0 146 0;
#X connect 125 0 123 0;
#X connect 135 0 70 0;
#X connect 139 0 98 0;
#X connect 140 0 98 0;
#X connect 141 0 98 0;
#X connect 142 0 98 0;
#X connect 144 0 84 0;
#X connect 145 0 57 2;
#X connect 146 0 60 0;
#X connect 146 0 125 0;
