#N canvas 615 23 881 885 12;
#X obj 150 120 bop.mix;
#A saved 0 0.792803 0;
#X obj 150 210 bop;
#A saved 148.135;
#X obj 150 330 outlet~;
#X obj 210 330 outlet~;
#X obj 20 27 inlet;
#X obj 20 56 tgl 15 0 empty empty empty 17 7 0 10 #fcfcfc #000000 #000000
1 1;
#X obj 20 120 switch~;
#X obj 490 31 inlet;
#X obj 490 60 s \$0-inlet-ctrl;
#X obj 340 60 r \$0-inlet-ctrl;
#X msg 80 30 play \$1;
#X obj 80 60 s \$0-inlet-ctrl;
#X obj 190 0 lvn.localreceive~ submix-l;
#X obj 210 30 lvn.localreceive~ submix-r;
#X obj 90 940 lvn.localsend~ submix-l;
#X obj 290 940 lvn.localsend~ submix-r;
#X obj 150 380 bop.sampler;
#A saved snare-tap-001.wav -0.168539 -0.134831 0.45 0 0 2.84597 1;
#X obj 470 230 bop.rhythm;
#A saved 12.125 3.8631 1 1 1\ 0\ 0\ 0\ 0\ 0\ 0\ 0\ 1\ 0\ 0\ 0\ 0\ 0\ 0\ 0\ 0\ 0\ 0\ 0\ 0\ 0\ 0\ 0
;
#X obj 683 477 route cell;
#X obj 677 563 t b f;
#X msg 679 611 start-position \$1;
#X obj 140 850 bop.mix;
#A saved 0 0.936782 0;
#X obj 680 510 sub.bop.util.scale 0 4 0.6 0;
#X obj 140 680 bop.distortion;
#A saved 0.890362 0.0759337 0.322065 1.5231 0.630435;
#X obj 564 738 bop.sampler;
#A saved kick.wav 0 -9.16854 0 1 0 4.2951 1;
#X obj 465 655 sel 1;
#X obj 465 684 bng 15 250 50 0 empty empty empty 17 7 0 10 #fcfcfc
#000000 #000000;
#X msg 465 708 60 100;
#X obj 810 400 bop.sampler;
#A saved snare-tap-002.wav 0 6.47191 0.0788044 0 0 0.931061 1;
#X obj 800 100 bop.rhythm;
#A saved 4.75 4.14405 1 1 0\ 1\ 0\ 1\ 0\ 1\ 0\ 0\ 0\ 0\ 0\ 0\ 0\ 0\ 0\ 0\ 0\ 0\ 0\ 0\ 0\ 0\ 0\ 0
;
#X obj 810 619 bop.mix;
#A saved 0 0.826577 0;
#X obj 810 708 bop.mix;
#A saved 0 0.861791 0;
#X msg 890 330 51 127;
#X msg 505 543 64 120;
#X obj 383 615 rev3~ 75 90 3000 20;
#X connect 0 0 1 0;
#X connect 0 1 1 1;
#X connect 0 2 1 2;
#X connect 0 3 1 3;
#X connect 1 0 2 0;
#X connect 1 1 3 0;
#X connect 4 0 5 0;
#X connect 5 0 6 0;
#X connect 5 0 10 0;
#X connect 7 0 8 0;
#X connect 9 0 0 3;
#X connect 10 0 11 0;
#X connect 12 0 0 0;
#X connect 13 0 0 1;
#X connect 16 0 23 0;
#X connect 16 0 34 0;
#X connect 16 1 23 1;
#X connect 16 1 34 1;
#X connect 16 2 23 2;
#X connect 16 3 23 3;
#X connect 17 3 18 0;
#X connect 18 0 22 0;
#X connect 18 0 25 0;
#X connect 19 0 33 0;
#X connect 19 1 20 0;
#X connect 20 0 16 3;
#X connect 21 0 14 0;
#X connect 21 1 15 0;
#X connect 22 0 19 0;
#X connect 23 0 21 0;
#X connect 23 1 21 1;
#X connect 24 0 16 0;
#X connect 24 1 16 1;
#X connect 25 0 26 0;
#X connect 26 0 27 0;
#X connect 27 0 24 2;
#X connect 28 0 30 0;
#X connect 28 1 30 1;
#X connect 29 3 32 0;
#X connect 30 0 31 0;
#X connect 30 1 31 1;
#X connect 31 0 24 0;
#X connect 31 1 24 1;
#X connect 32 0 28 2;
#X connect 33 0 16 2;
#X connect 34 0 23 0;
#X connect 34 1 23 1;
#X coords 0 -1 1 1 350 264 1 100 100;
