#N struct text float x float y text t;
#N canvas 558 65 1252 855 12;
#X obj 340 1250 bop.mix;
#A saved 0 1.41052 0.645669;
#X obj 407 591 bop.notefx;
#A saved 0 -1.63429 0 0 100 119.5 1 15.7609 38.587;
#X obj 180 90 inlet;
#X obj 180 170 switch~;
#X msg 920 510 make this a note list to get more control, f 18;
#X obj 350 1520 bop.send;
#A saved master;
#X obj 610 1150 inlet;
#X obj 180 130 tgl 15 0 empty empty empty 17 7 0 10 #fcfcfc #000000
#000000 1 1;
#X text 100 50 use to blur transition into sprint;
#X obj 410 440 bop.notelist;
#A saved g1\ g1\ g2 0;
#X msg 610 380 note \$1;
#X obj 610 290 bng 15 250 50 0 empty empty empty 17 7 0 10 #fcfcfc
#000000 #000000;
#X msg 470 380 notelist f#4 g4;
#X msg 640 300 note \$1;
#X obj 640 240 int;
#X obj 640 270 change;
#X obj 640 210 * 6;
#X obj 710 310 bng 15 250 50 0 empty empty empty 17 7 0 10 #fcfcfc
#000000 #000000;
#X obj 710 340 f;
#X obj 780 340 + 1;
#X obj 350 1370 bop;
#A saved 92.6678;
#X obj 620 1180 route note;
#X obj 630 1217 s from-note-\$0;
#X obj 650 730 r from-note-\$0;
#X obj 820 190;
#X obj 633 1468 s \$0-time;
#X obj 920 160 r \$0-time;
#X obj 885 295 bz/inspect;
#X obj 760 439 sel 0;
#X obj 760 468 bng 15 250 50 0 empty empty empty 17 7 0 10 #fcfcfc
#000000 #000000;
#X obj 760 492 f;
#X obj 810 520 + 1;
#X floatatom 760 521 5 0 0 0 - - -, f 5;
#X floatatom 720 440 5 0 0 0 - - -, f 5;
#X obj 330 890 bop.marimba;
#A saved 0;
#X msg 400 200 notelist g1 g1 g2;
#X obj 920 189 route ticks beats;
#X obj 700 370 + 1;
#X obj 760 410 % 8;
#X connect 0 0 20 0;
#X connect 0 1 20 1;
#X connect 0 2 20 2;
#X connect 1 2 34 2;
#X connect 2 0 7 0;
#X connect 6 0 0 3;
#X connect 6 0 21 0;
#X connect 7 0 3 0;
#X connect 9 2 1 2;
#X connect 10 0 9 3;
#X connect 12 0 9 3;
#X connect 14 0 15 0;
#X connect 15 0 13 0;
#X connect 16 0 14 0;
#X connect 17 0 18 0;
#X connect 18 0 19 0;
#X connect 18 0 37 0;
#X connect 19 0 18 1;
#X connect 20 0 5 0;
#X connect 20 1 5 1;
#X connect 20 3 25 0;
#X connect 21 0 22 0;
#X connect 26 0 36 0;
#X connect 28 0 29 0;
#X connect 29 0 30 0;
#X connect 30 0 31 0;
#X connect 30 0 32 0;
#X connect 31 0 30 1;
#X connect 32 0 10 0;
#X connect 34 0 0 0;
#X connect 34 1 0 1;
#X connect 35 0 9 3;
#X connect 36 1 17 0;
#X connect 37 0 38 0;
#X connect 38 0 28 0;
#X connect 38 0 33 0;
#X coords 0 -1 1 1 256 240 1 326 1229;
