#N canvas 139 23 1301 758 12;
#X obj 140 380 lvn.hyperstave 3;
#X text 200 350 Elevation;
#X obj 140 510 route 0 1 2, f 35;
#X msg 240 300 connect 0;
#N canvas 892 110 450 300 up 0;
#X obj 100 100 inlet;
#X obj 100 150 lvn.stave;
#X connect 0 0 1 0;
#X restore 140 560 pd up;
#N canvas 504 170 840 491 level 0;
#X obj 100 100 inlet;
#X obj 100 300 lvn.hyperstave 4;
#X obj 100 420 route 0 1 2 3;
#N canvas 892 110 450 300 north 0;
#X obj 100 100 inlet;
#X obj 100 150 lvn.stave;
#X connect 0 0 1 0;
#X restore 100 540 pd north;
#N canvas 892 110 450 300 east 0;
#X obj 100 100 inlet;
#X obj 100 150 lvn.stave;
#X connect 0 0 1 0;
#X restore 120 510 pd east;
#N canvas 892 110 450 300 south 0;
#X obj 100 100 inlet;
#X obj 100 150 lvn.stave;
#X connect 0 0 1 0;
#X restore 140 480 pd south;
#N canvas 892 110 450 300 west 0;
#X obj 100 100 inlet;
#X obj 100 150 lvn.stave;
#X connect 0 0 1 0;
#X restore 160 450 pd west;
#X obj 120 190 r h;
#X obj 121 229 / 360;
#X msg 120 260 hue \$1;
#X obj 100 130 lvn.stave;
#X connect 0 0 10 0;
#X connect 1 0 2 0;
#X connect 2 0 3 0;
#X connect 2 1 4 0;
#X connect 2 2 5 0;
#X connect 2 3 6 0;
#X connect 7 0 8 0;
#X connect 8 0 9 0;
#X connect 9 0 1 0;
#X connect 10 0 1 0;
#X restore 220 560 pd level;
#N canvas 892 110 450 300 down 0;
#X obj 100 100 inlet;
#X obj 100 150 lvn.stave;
#X connect 0 0 1 0;
#X restore 300 560 pd down;
#X obj 400 230 r ax;
#X obj 400 259 r ay;
#X obj 400 288 r az;
#X obj 440 230 r rvx;
#X obj 440 259 r rvy;
#X obj 440 288 r rvz;
#X obj 490 230 r inv;
#X msg 140 300 hue \$1;
#X obj 140 220 r pitch;
#N canvas 495 23 450 300 map-pitch 0;
#X obj 100 110 % 360;
#X obj 100 80 + 90;
#X text 40 140 inverted;
#X text 250 140 upright;
#X obj 100 140 moses 180, f 20;
#X obj 240 180 bz/scale 360 180 0 1;
#X obj 100 180 bz/scale 0 180 0 1;
#X obj 100 40 inlet;
#X obj 100 260 outlet;
#X text 40 10 scale pitch such that 0 and 180 degrees both return 0.5
;
#X connect 0 0 4 0;
#X connect 1 0 0 0;
#X connect 4 0 6 0;
#X connect 4 1 5 0;
#X connect 5 0 8 0;
#X connect 6 0 8 0;
#X connect 7 0 1 0;
#X restore 140 260 pd map-pitch;
#X text 400 200 expression input parameters;
#X connect 0 0 2 0;
#X connect 2 0 4 0;
#X connect 2 1 5 0;
#X connect 2 2 6 0;
#X connect 3 0 0 0;
#X connect 14 0 0 0;
#X connect 15 0 16 0;
#X connect 16 0 14 0;
