#N struct text float x float y text t;
#N canvas 600 23 840 855 12;
#X msg 100 200 connect 0;
#X obj 500 330 r ax;
#X obj 500 359 r ay;
#X obj 500 388 r az;
#X obj 540 330 r rvx;
#X obj 540 359 r rvy;
#X obj 540 388 r rvz;
#X obj 590 330 r inv;
#X msg 720 390 hue \$1;
#X obj 720 310 r pitch;
#X text 500 300 expression input parameters;
#N canvas 553 94 793 496 map-pitch 0;
#X obj 20 110 % 360;
#X obj 20 80 + 90;
#X text 110 200 inverted;
#X text 320 200 upright;
#X obj 170 200 moses 180, f 20;
#X obj 20 40 inlet;
#X obj 170 360 outlet;
#X text 20 10 scale pitch such that 0 and 180 degrees both return 0.5
;
#X obj 170 240 bz/scale 0 180 1 0;
#X obj 310 240 bz/scale 360 180 1 0;
#X floatatom 20 269 5 0 0 0 - - -, f 5;
#X obj 20 240 bz/scale 0 -90 1 0;
#X obj 20 150 moses 0;
#X connect 0 0 12 0;
#X connect 1 0 0 0;
#X connect 4 0 8 0;
#X connect 4 1 9 0;
#X connect 5 0 1 0;
#X connect 8 0 6 0;
#X connect 9 0 6 0;
#X connect 10 0 6 0;
#X connect 11 0 10 0;
#X connect 12 0 11 0;
#X connect 12 1 4 0;
#X restore 720 350 pd map-pitch;
#X obj 101 348 lvn.hyperstave 4;
#X obj 100 470 route 0 1 2 3, f 38;
#X obj 120 240 r h;
#X obj 121 279 / 360;
#X msg 120 310 hue \$1;
#X obj 100 160 loadbang;
#X obj 100 870 bop.send;
#A saved master;
#X obj 100 760 bop.mix;
#A saved 0 0.327793 0;
#X obj 210 160 inlet;
#X obj 210 189 switch~;
#X floatatom 323 585 0 0 120 0 - - -;
#X text 364 585 level \, dB;
#X floatatom 367 609 0 0 100 0 - - -;
#X text 408 609 liveness \, 0-100;
#X floatatom 411 635 7 0 5000 0 - - -, f 7;
#X floatatom 447 669 0 0 120 0 - - -;
#X text 462 650 crossover frequency \, Hz.;
#X text 480 670 HF damping \, percent;
#X obj 280 700 rev2~ 100 100 2133 31;
#X text 100 120 sparkles in the direction of sunrise and sunset;
#X text 100 100 Azimuth-Sparkle;
#X obj 100 520 stave-sparkle;
#X obj 230 520 stave-sparkle;
#X text 450 190 pull in an array of hue values in the right inlet.
Leave mapping outside of voice, f 28;
#X obj 390 170 inlet;
#X connect 0 0 12 0;
#X connect 9 0 11 0;
#X connect 11 0 8 0;
#X connect 12 0 13 0;
#X connect 13 1 33 0;
#X connect 13 3 34 0;
#X connect 14 0 15 0;
#X connect 15 0 16 0;
#X connect 16 0 12 0;
#X connect 17 0 0 0;
#X connect 19 0 18 0;
#X connect 19 1 18 1;
#X connect 20 0 21 0;
#X connect 22 0 30 1;
#X connect 24 0 30 2;
#X connect 26 0 30 3;
#X connect 27 0 30 4;
#X connect 30 0 19 0;
#X connect 30 1 19 1;
#X connect 33 0 19 0;
#X connect 33 1 19 1;
#X connect 33 1 30 0;
#X connect 34 0 19 0;
#X connect 34 0 30 0;
#X connect 34 1 19 1;
