#N struct text float x float y text t;
#N canvas 411 23 1029 838 12;
#X obj 140 380 lvn.hyperstave 3;
#X text 200 350 Elevation;
#X obj 140 510 route 0 1 2, f 35;
#X msg 240 300 connect 0;
#N canvas 892 110 450 300 up 0;
#X obj 100 100 inlet;
#X obj 100 150 lvn.stave;
#X connect 0 0 1 0;
#X restore 140 560 pd up;
#N canvas 0 23 1440 855 level 1;
#X obj 100 100 inlet;
#X obj 100 300 lvn.hyperstave 4;
#X obj 100 420 route 0 1 2 3, f 77;
#N canvas 0 23 1440 855 north 0;
#X obj 100 100 inlet;
#X obj 100 150 lvn.stave;
#X floatatom 340 80 5 0 0 0 - - -, f 5;
#X floatatom 300 -40 5 0 0 0 - - -, f 5;
#X floatatom 320 20 5 0 0 0 - - -, f 5;
#X msg 300 -10 button \$1;
#X msg 320 50 playhead \$1;
#X obj 730 400 tgl 15 0 empty empty empty 17 7 0 10 #fcfcfc #000000
#000000 1 1;
#X floatatom 810 330 5 0 0 0 - - -, f 5;
#X floatatom 888 248 5 0 0 0 - - -, f 5;
#X msg 970 170 0 1 0;
#N canvas 0 22 450 300 prepend-set 0;
#X obj 40 80 list prepend set;
#X obj 40 110 list trim;
#X obj 13 26 inlet;
#X obj 13 183 outlet;
#X connect 0 0 1 0;
#X connect 1 0 3 0;
#X connect 2 0 0 0;
#X restore 970 120 pd prepend-set;
#X obj 730 80 route active relativepos distance coords, f 46;
#X text 760 400 useful for enabling/disbaling subpatch;
#X text 850 330 useful for controlling embedded hyperstaves \, and
spatial panning, f 64;
#X text 938 248 useful for volume automation;
#X text 1010 170 useful for reusable generative algorithms;
#X obj 730 500 switch~;
#X obj 730 470 tgl 15 0 empty empty empty 17 7 0 10 #fcfcfc #000000
#000000 1 1;
#X floatatom 840 480 5 0 0 0 - - -, f 5;
#X text 758 378 ACTIVE;
#X text 848 308 RELATIVEPOS;
#X text 938 228 DISTANCE;
#X text 1010 150 COORDS;
#N canvas 325 110 450 300 smooth-switch 0;
#X obj 40 110 line;
#X msg 40 80 \$1 750;
#X obj 40 180 change;
#X obj 40 40 inlet;
#X obj 90 180 outlet;
#X obj 40 210 outlet;
#X obj 40 150 > 0.001;
#X connect 0 0 4 0;
#X connect 0 0 6 0;
#X connect 1 0 0 0;
#X connect 2 0 5 0;
#X connect 3 0 1 0;
#X connect 6 0 2 0;
#X restore 730 440 pd smooth-switch;
#X text 880 480 游녣 use to smoothly fade subpatch;
#X msg 340 110 message \$1;
#X text 430 -10 control stave toggle;
#X text 430 50 control stave slider;
#X text 430 90 all other messages are forward to parent hyperstave
and are output from its bottom right outlet, f 35;
#X text 390 250 local send and receives are local to this subpatch
, f 26;
#X obj 730 40 lvn.localreceive stave-info;
#X obj 290 200 lvn.localsend stave-info;
#X obj 250 320 inlet;
#X obj 250 370 route notes;
#X obj 220 520 bop.casio;
#A saved 2.54891 3.95652 0.63587 0.0119148 0.298913 0.146739 0.0108696
0.342391 0 0.146739 1;
#X obj 220 830 bop.mix;
#A saved 0 0.769664 0.41135;
#X msg 440 780 amp \$1;
#X obj 810 360 lvn.localsend pos;
#X obj 520 720 lvn.localreceive pos;
#X msg 520 780 pan \$1;
#X obj 890 280 lvn.localsend distance;
#X obj 440 600 lvn.localreceive distance;
#X obj 840 510 lvn.localsend off;
#X obj 330 950 lvn.localreceive off;
#X obj 220 980 *~;
#X obj 327 984 change;
#X obj 290 980 *~;
#X obj 970 200 lvn.localsend coords;
#X text 1400 1270 游낼;
#X obj 220 1050 outlet~;
#X obj 290 1050 outlet~;
#X text 360 1050 pass audio back up to parent;
#X obj 370 20 lvn.localreceive off;
#X obj 680 230 lvn.localreceive distance;
#X obj 676 270 < 0.65;
#X obj 520 751 bz/scale -0.2 1.2 -1 1;
#X obj 440 640 bz/scale 0.5 0 0.6 1;
#X obj 390 380 unpack;
#X obj 392 415 + 12;
#X obj 409 447 pack;
#X connect 0 0 1 0;
#X connect 1 1 32 0;
#X connect 2 0 26 0;
#X connect 3 0 5 0;
#X connect 4 0 6 0;
#X connect 5 0 1 1;
#X connect 6 0 1 1;
#X connect 7 0 24 0;
#X connect 8 0 38 0;
#X connect 9 0 41 0;
#X connect 10 0 48 0;
#X connect 11 0 10 0;
#X connect 12 1 8 0;
#X connect 12 2 9 0;
#X connect 12 3 11 0;
#X connect 18 0 17 0;
#X connect 18 0 3 0;
#X connect 19 0 43 0;
#X connect 24 0 18 0;
#X connect 24 1 19 0;
#X connect 26 0 1 1;
#X connect 31 0 12 0;
#X connect 33 0 34 0;
#X connect 34 0 58 0;
#X connect 35 0 36 0;
#X connect 35 1 36 1;
#X connect 36 0 45 0;
#X connect 36 1 47 0;
#X connect 37 0 36 3;
#X connect 39 0 56 0;
#X connect 40 0 36 3;
#X connect 42 0 57 0;
#X connect 44 0 46 0;
#X connect 45 0 50 0;
#X connect 46 0 45 1;
#X connect 46 0 47 1;
#X connect 47 0 51 0;
#X connect 53 0 6 0;
#X connect 54 0 55 0;
#X connect 55 0 7 0;
#X connect 56 0 40 0;
#X connect 57 0 37 0;
#X connect 58 0 59 0;
#X connect 58 1 60 1;
#X connect 59 0 60 0;
#X connect 60 0 35 2;
#X restore 100 630 pd north;
#N canvas 0 23 1440 855 east 0;
#X obj 96 222 inlet;
#X obj 96 272 lvn.stave;
#X floatatom 336 202 5 0 0 0 - - -, f 5;
#X floatatom 296 82 5 0 0 0 - - -, f 5;
#X floatatom 316 142 5 0 0 0 - - -, f 5;
#X msg 296 112 button \$1;
#X msg 316 172 playhead \$1;
#X obj 726 522 tgl 15 0 empty empty empty 17 7 0 10 #fcfcfc #000000
#000000 0 1;
#X floatatom 806 452 5 0 0 0 - - -, f 5;
#X floatatom 884 370 5 0 0 0 - - -, f 5;
#X msg 966 292 0 1 1;
#N canvas 0 22 450 300 prepend-set 0;
#X obj 40 80 list prepend set;
#X obj 40 110 list trim;
#X obj 13 26 inlet;
#X obj 13 183 outlet;
#X connect 0 0 1 0;
#X connect 1 0 3 0;
#X connect 2 0 0 0;
#X restore 966 242 pd prepend-set;
#X obj 726 202 route active relativepos distance coords, f 46;
#X text 756 522 useful for enabling/disbaling subpatch;
#X text 846 452 useful for controlling embedded hyperstaves \, and
spatial panning, f 64;
#X text 934 370 useful for volume automation;
#X text 1006 292 useful for reusable generative algorithms;
#X obj 726 622 switch~;
#X obj 726 592 tgl 15 0 empty empty empty 17 7 0 10 #fcfcfc #000000
#000000 0 1;
#X floatatom 836 602 5 0 0 0 - - -, f 5;
#X text 754 500 ACTIVE;
#X text 844 430 RELATIVEPOS;
#X text 934 350 DISTANCE;
#X text 1006 272 COORDS;
#N canvas 325 110 450 300 smooth-switch 0;
#X obj 40 110 line;
#X msg 40 80 \$1 750;
#X obj 40 180 change;
#X obj 40 40 inlet;
#X obj 90 180 outlet;
#X obj 40 210 outlet;
#X obj 40 150 > 0.001;
#X connect 0 0 4 0;
#X connect 0 0 6 0;
#X connect 1 0 0 0;
#X connect 2 0 5 0;
#X connect 3 0 1 0;
#X connect 6 0 2 0;
#X restore 726 562 pd smooth-switch;
#X text 876 602 游녣 use to smoothly fade subpatch;
#X msg 336 232 message \$1;
#X text 426 112 control stave toggle;
#X text 426 172 control stave slider;
#X text 426 212 all other messages are forward to parent hyperstave
and are output from its bottom right outlet, f 35;
#X text 386 372 local send and receives are local to this subpatch
, f 26;
#X obj 726 162 lvn.localreceive stave-info;
#X obj 286 322 lvn.localsend stave-info;
#X obj 226 502 inlet;
#X obj 226 552 route notes;
#X obj 216 642 bop.casio;
#A saved 0 0 0.766304 0.0119148 0.315217 0.146739 0.222826 0.342391
0 0.146739 1;
#X obj 216 952 bop.mix;
#A saved 0 0.43044 -1;
#X obj 806 482 lvn.localsend pos;
#X obj 886 402 lvn.localsend distance;
#X obj 836 632 lvn.localsend off;
#X obj 326 1072 lvn.localreceive off;
#X obj 216 1102 *~;
#X obj 323 1106 change;
#X obj 286 1102 *~;
#X obj 966 322 lvn.localsend coords;
#X text 1396 1392 游낼;
#X obj 216 1172 outlet~;
#X obj 286 1172 outlet~;
#X text 356 1172 pass audio back up to parent;
#X obj 366 142 lvn.localreceive off;
#X obj 674 320 lvn.localreceive distance;
#X obj 670 360 < 0.65;
#X msg 450 890 amp \$1;
#X obj 530 830 lvn.localreceive pos;
#X msg 530 890 pan \$1;
#X obj 450 710 lvn.localreceive distance;
#X obj 530 861 bz/scale -0.2 1.2 -1 1;
#X obj 450 750 bz/scale 0.5 0 0.6 1;
#X connect 0 0 1 0;
#X connect 1 1 32 0;
#X connect 2 0 26 0;
#X connect 3 0 5 0;
#X connect 4 0 6 0;
#X connect 5 0 1 1;
#X connect 6 0 1 1;
#X connect 7 0 24 0;
#X connect 8 0 37 0;
#X connect 9 0 38 0;
#X connect 10 0 44 0;
#X connect 11 0 10 0;
#X connect 12 1 8 0;
#X connect 12 2 9 0;
#X connect 12 3 11 0;
#X connect 18 0 17 0;
#X connect 18 0 3 0;
#X connect 19 0 39 0;
#X connect 24 0 18 0;
#X connect 24 1 19 0;
#X connect 26 0 1 1;
#X connect 31 0 12 0;
#X connect 33 0 34 0;
#X connect 34 0 35 2;
#X connect 35 0 36 0;
#X connect 35 1 36 1;
#X connect 36 0 41 0;
#X connect 36 1 43 0;
#X connect 40 0 42 0;
#X connect 41 0 46 0;
#X connect 42 0 41 1;
#X connect 42 0 43 1;
#X connect 43 0 47 0;
#X connect 49 0 6 0;
#X connect 50 0 51 0;
#X connect 51 0 7 0;
#X connect 52 0 36 3;
#X connect 53 0 56 0;
#X connect 54 0 36 3;
#X connect 55 0 57 0;
#X connect 56 0 54 0;
#X connect 57 0 52 0;
#X restore 230 630 pd east;
#N canvas 0 23 1440 855 south 0;
#X obj 59 181 inlet;
#X obj 59 231 lvn.stave;
#X floatatom 299 161 5 0 0 0 - - -, f 5;
#X floatatom 259 41 5 0 0 0 - - -, f 5;
#X floatatom 279 101 5 0 0 0 - - -, f 5;
#X msg 259 71 button \$1;
#X msg 279 131 playhead \$1;
#X obj 689 481 tgl 15 0 empty empty empty 17 7 0 10 #fcfcfc #000000
#000000 0 1;
#X floatatom 769 411 5 0 0 0 - - -, f 5;
#X floatatom 847 329 5 0 0 0 - - -, f 5;
#X msg 929 251 0 1 2;
#N canvas 0 22 450 300 prepend-set 0;
#X obj 40 80 list prepend set;
#X obj 40 110 list trim;
#X obj 13 26 inlet;
#X obj 13 183 outlet;
#X connect 0 0 1 0;
#X connect 1 0 3 0;
#X connect 2 0 0 0;
#X restore 929 201 pd prepend-set;
#X obj 689 161 route active relativepos distance coords, f 46;
#X text 719 481 useful for enabling/disbaling subpatch;
#X text 809 411 useful for controlling embedded hyperstaves \, and
spatial panning, f 64;
#X text 897 329 useful for volume automation;
#X text 969 251 useful for reusable generative algorithms;
#X obj 689 581 switch~;
#X obj 689 551 tgl 15 0 empty empty empty 17 7 0 10 #fcfcfc #000000
#000000 0 1;
#X floatatom 799 561 5 0 0 0 - - -, f 5;
#X text 717 459 ACTIVE;
#X text 807 389 RELATIVEPOS;
#X text 897 309 DISTANCE;
#X text 969 231 COORDS;
#N canvas 325 110 450 300 smooth-switch 0;
#X obj 40 110 line;
#X msg 40 80 \$1 750;
#X obj 40 180 change;
#X obj 40 40 inlet;
#X obj 90 180 outlet;
#X obj 40 210 outlet;
#X obj 40 150 > 0.001;
#X connect 0 0 4 0;
#X connect 0 0 6 0;
#X connect 1 0 0 0;
#X connect 2 0 5 0;
#X connect 3 0 1 0;
#X connect 6 0 2 0;
#X restore 689 521 pd smooth-switch;
#X text 839 561 游녣 use to smoothly fade subpatch;
#X msg 299 191 message \$1;
#X text 389 71 control stave toggle;
#X text 389 131 control stave slider;
#X text 389 171 all other messages are forward to parent hyperstave
and are output from its bottom right outlet, f 35;
#X text 349 331 local send and receives are local to this subpatch
, f 26;
#X obj 689 121 lvn.localreceive stave-info;
#X obj 249 281 lvn.localsend stave-info;
#X obj 189 461 inlet;
#X obj 189 511 route notes;
#X obj 179 911 bop.mix;
#A saved 0 0.01 -1;
#X obj 769 441 lvn.localsend pos;
#X obj 849 361 lvn.localsend distance;
#X obj 799 591 lvn.localsend off;
#X obj 289 1031 lvn.localreceive off;
#X obj 179 1061 *~;
#X obj 286 1065 change;
#X obj 249 1061 *~;
#X obj 929 281 lvn.localsend coords;
#X text 1359 1351 游낼;
#X obj 179 1131 outlet~;
#X obj 249 1131 outlet~;
#X text 319 1131 pass audio back up to parent;
#X obj 329 101 lvn.localreceive off;
#X obj 664 310 lvn.localreceive distance;
#X obj 660 350 < 0.65;
#X msg 420 850 amp \$1;
#X obj 500 790 lvn.localreceive pos;
#X msg 500 850 pan \$1;
#X obj 420 670 lvn.localreceive distance;
#X obj 500 821 bz/scale -0.2 1.2 -1 1;
#X obj 420 710 bz/scale 0.5 0 0.6 1;
#X obj 180 560 bop.synth;
#A saved 0.33246 0.782609 0.228261 0.434783 0.0163043 0 0.0869565 1
0.0128439 0.0471969 0.01 0.376779 0 0 0.0759337;
#X connect 0 0 1 0;
#X connect 1 1 32 0;
#X connect 2 0 26 0;
#X connect 3 0 5 0;
#X connect 4 0 6 0;
#X connect 5 0 1 1;
#X connect 6 0 1 1;
#X connect 7 0 24 0;
#X connect 8 0 36 0;
#X connect 9 0 37 0;
#X connect 10 0 43 0;
#X connect 11 0 10 0;
#X connect 12 1 8 0;
#X connect 12 2 9 0;
#X connect 12 3 11 0;
#X connect 18 0 17 0;
#X connect 18 0 3 0;
#X connect 19 0 38 0;
#X connect 24 0 18 0;
#X connect 24 1 19 0;
#X connect 26 0 1 1;
#X connect 31 0 12 0;
#X connect 33 0 34 0;
#X connect 34 0 57 2;
#X connect 35 0 40 0;
#X connect 35 1 42 0;
#X connect 39 0 41 0;
#X connect 40 0 45 0;
#X connect 41 0 40 1;
#X connect 41 0 42 1;
#X connect 42 0 46 0;
#X connect 48 0 6 0;
#X connect 49 0 50 0;
#X connect 50 0 7 0;
#X connect 51 0 35 3;
#X connect 52 0 55 0;
#X connect 53 0 35 3;
#X connect 54 0 56 0;
#X connect 55 0 53 0;
#X connect 56 0 51 0;
#X connect 57 0 35 0;
#X connect 57 1 35 1;
#X restore 370 630 pd south;
#N canvas 720 23 720 855 west 0;
#X obj 127 261 inlet;
#X obj 127 311 lvn.stave;
#X floatatom 367 241 5 0 0 0 - - -, f 5;
#X floatatom 327 121 5 0 0 0 - - -, f 5;
#X floatatom 347 181 5 0 0 0 - - -, f 5;
#X msg 327 151 button \$1;
#X msg 347 211 playhead \$1;
#X obj 757 561 tgl 15 0 empty empty empty 17 7 0 10 #fcfcfc #000000
#000000 0 1;
#X floatatom 837 491 5 0 0 0 - - -, f 5;
#X floatatom 915 409 5 0 0 0 - - -, f 5;
#X msg 997 331 0 1 3;
#N canvas 0 22 450 300 prepend-set 0;
#X obj 40 80 list prepend set;
#X obj 40 110 list trim;
#X obj 13 26 inlet;
#X obj 13 183 outlet;
#X connect 0 0 1 0;
#X connect 1 0 3 0;
#X connect 2 0 0 0;
#X restore 997 281 pd prepend-set;
#X obj 757 241 route active relativepos distance coords, f 46;
#X text 787 561 useful for enabling/disbaling subpatch;
#X text 877 491 useful for controlling embedded hyperstaves \, and
spatial panning, f 64;
#X text 965 409 useful for volume automation;
#X text 1037 331 useful for reusable generative algorithms;
#X obj 757 661 switch~;
#X obj 757 631 tgl 15 0 empty empty empty 17 7 0 10 #fcfcfc #000000
#000000 0 1;
#X floatatom 867 641 5 0 0 0 - - -, f 5;
#X text 785 539 ACTIVE;
#X text 875 469 RELATIVEPOS;
#X text 965 389 DISTANCE;
#X text 1037 311 COORDS;
#N canvas 325 110 450 300 smooth-switch 0;
#X obj 40 110 line;
#X msg 40 80 \$1 750;
#X obj 40 180 change;
#X obj 40 40 inlet;
#X obj 90 180 outlet;
#X obj 40 210 outlet;
#X obj 40 150 > 0.001;
#X connect 0 0 4 0;
#X connect 0 0 6 0;
#X connect 1 0 0 0;
#X connect 2 0 5 0;
#X connect 3 0 1 0;
#X connect 6 0 2 0;
#X restore 757 601 pd smooth-switch;
#X text 907 641 游녣 use to smoothly fade subpatch;
#X msg 367 271 message \$1;
#X text 457 151 control stave toggle;
#X text 457 211 control stave slider;
#X text 457 251 all other messages are forward to parent hyperstave
and are output from its bottom right outlet, f 35;
#X text 417 411 local send and receives are local to this subpatch
, f 26;
#X obj 757 201 lvn.localreceive stave-info;
#X obj 317 361 lvn.localsend stave-info;
#X obj 257 541 inlet;
#X obj 257 591 route notes;
#X obj 247 991 bop.mix;
#A saved 0 0.01 -1;
#X obj 837 521 lvn.localsend pos;
#X obj 917 441 lvn.localsend distance;
#X obj 867 671 lvn.localsend off;
#X obj 357 1111 lvn.localreceive off;
#X obj 247 1141 *~;
#X obj 354 1145 change;
#X obj 317 1141 *~;
#X obj 997 361 lvn.localsend coords;
#X text 1427 1431 游낼;
#X obj 247 1211 outlet~;
#X obj 317 1211 outlet~;
#X text 387 1211 pass audio back up to parent;
#X obj 397 181 lvn.localreceive off;
#X obj 724 380 lvn.localreceive distance;
#X obj 720 420 < 0.65;
#X msg 470 930 amp \$1;
#X obj 550 870 lvn.localreceive pos;
#X msg 550 930 pan \$1;
#X obj 470 750 lvn.localreceive distance;
#X obj 550 901 bz/scale -0.2 1.2 -1 1;
#X obj 470 790 bz/scale 0.5 0 0.6 1;
#X obj 780 850 bop.palette;
#X obj 10 690 bop.rhodes;
#A saved 1;
#X obj 220 830 bop.distortion;
#A saved 0.964182 0.0534886 1 1.9 0.483696;
#X connect 0 0 1 0;
#X connect 1 1 32 0;
#X connect 2 0 26 0;
#X connect 3 0 5 0;
#X connect 4 0 6 0;
#X connect 5 0 1 1;
#X connect 6 0 1 1;
#X connect 7 0 24 0;
#X connect 8 0 36 0;
#X connect 9 0 37 0;
#X connect 10 0 43 0;
#X connect 11 0 10 0;
#X connect 12 1 8 0;
#X connect 12 2 9 0;
#X connect 12 3 11 0;
#X connect 18 0 17 0;
#X connect 18 0 3 0;
#X connect 19 0 38 0;
#X connect 24 0 18 0;
#X connect 24 1 19 0;
#X connect 26 0 1 1;
#X connect 31 0 12 0;
#X connect 33 0 34 0;
#X connect 34 0 58 2;
#X connect 35 0 40 0;
#X connect 35 1 42 0;
#X connect 39 0 41 0;
#X connect 40 0 45 0;
#X connect 41 0 40 1;
#X connect 41 0 42 1;
#X connect 42 0 46 0;
#X connect 48 0 6 0;
#X connect 49 0 50 0;
#X connect 50 0 7 0;
#X connect 51 0 35 3;
#X connect 52 0 55 0;
#X connect 53 0 35 3;
#X connect 54 0 56 0;
#X connect 55 0 53 0;
#X connect 56 0 51 0;
#X connect 58 0 59 0;
#X connect 58 1 59 1;
#X connect 59 0 35 0;
#X connect 59 1 35 1;
#X restore 500 630 pd west;
#X obj 120 190 r h;
#X obj 121 229 / 360;
#X msg 120 260 hue \$1;
#X obj 100 130 lvn.stave;
#X obj 800 200 r h;
#X obj 800 480 bop.notelist;
#A saved c3\ e3\ d3\ f#3\ e3\ g3\ f#3\ a3\ g3\ b3\ a3\ c4\ b3\ d4\ c4\ a3\ b3\ g3\ a3\ f#3\ g3\ e3\ f#3\ d3\ e3\ c3\ d3\ b2
0;
#X obj 800 320 int;
#X msg 800 400 note \$1;
#X obj 800 360 change;
#X obj 1010 410 bz/prepend notelist;
#X msg 1290 220 c3 e3 d3 f#3 e3 g3 f#3 a3 g3 b3 a3 c4 b3 d4 c4 a3 b3
g3 a3 f#3 g3 e3 f#3 d3 e3 c3 d3 b2;
#X obj 1330 310 list length;
#X floatatom 1330 341 5 0 0 0 - - -, f 5;
#X obj 800 230 / 360;
#X obj 800 290 *;
#X obj 1070 720 bop.notelist;
#A saved e3\ f#3\ d3\ e3\ c3\ d3\ b2\ c3\ e3\ d3\ f#3\ e3\ g3\ f#3\ a3\ g3\ b3\ a3\ c4\ b3\ d4\ c4\ a3\ b3\ g3\ a3\ f#3\ g3
0;
#X obj 1290 270 t l l, f 6;
#X text 1290 190 C lydian up and down in running thirds;
#X obj 1296 649 bz/prepend notelist;
#X obj 1180 650 route notelist;
#X obj 1360 510 / 4;
#X obj 1330 371 lvn.localsend notelist-length;
#X obj 810 260 lvn.localreceive notelist-length;
#X obj 1360 470 lvn.localreceive notelist-length;
#X obj 1290 560 zl rot 0, f 11;
#X obj 1070 820 bz/prepend notes;
#X obj 800 580 bz/prepend notes;
#X obj 810 620 lvn.localsend to-north;
#X obj 800 650 lvn.localsend to-south;
#X obj 1080 860 lvn.localsend to-east;
#X obj 1070 889 lvn.localsend to-west;
#X obj 110 500 lvn.localreceive to-north;
#X obj 400 570 lvn.localreceive to-south;
#X obj 250 540 lvn.localreceive to-east;
#X obj 510 600 lvn.localreceive to-west;
#X text 1290 160 change the notelist from latitude and longitude or
similar;
#X obj 1170 190 loadbang;
#X obj 390 770 outlet~;
#X obj 250 770 outlet~;
#X connect 0 0 10 0;
#X connect 1 0 2 0;
#X connect 2 0 3 0;
#X connect 2 1 4 0;
#X connect 2 2 5 0;
#X connect 2 3 6 0;
#X connect 3 0 45 0;
#X connect 3 1 44 0;
#X connect 4 0 45 0;
#X connect 4 1 44 0;
#X connect 5 0 45 0;
#X connect 5 1 44 0;
#X connect 6 0 45 0;
#X connect 6 1 44 0;
#X connect 7 0 8 0;
#X connect 8 0 9 0;
#X connect 9 0 1 0;
#X connect 10 0 1 0;
#X connect 11 0 20 0;
#X connect 12 2 33 0;
#X connect 12 3 26 0;
#X connect 13 0 15 0;
#X connect 14 0 12 3;
#X connect 15 0 14 0;
#X connect 16 0 12 3;
#X connect 17 0 23 0;
#X connect 18 0 19 0;
#X connect 19 0 28 0;
#X connect 20 0 21 0;
#X connect 21 0 13 0;
#X connect 22 2 32 0;
#X connect 23 0 16 0;
#X connect 23 0 31 0;
#X connect 23 1 18 0;
#X connect 25 0 22 3;
#X connect 26 1 22 3;
#X connect 27 0 31 1;
#X connect 29 0 21 1;
#X connect 30 0 27 0;
#X connect 31 0 25 0;
#X connect 32 0 37 0;
#X connect 32 0 36 0;
#X connect 33 0 34 0;
#X connect 33 0 35 0;
#X connect 38 0 3 1;
#X connect 39 0 5 1;
#X connect 40 0 4 1;
#X connect 41 0 6 1;
#X connect 43 0 17 0;
#X restore 220 560 pd level;
#N canvas 892 110 450 300 down 0;
#X obj 100 100 inlet;
#X obj 100 150 lvn.stave;
#X connect 0 0 1 0;
#X restore 300 560 pd down;
#X obj 400 230 r ax;
#X obj 400 259 r ay;
#X obj 400 288 r az;
#X obj 440 230 r rvx;
#X obj 440 259 r rvy;
#X obj 440 288 r rvz;
#X obj 490 230 r inv;
#X msg 140 300 hue \$1;
#X obj 140 220 r pitch;
#N canvas 495 23 450 300 map-pitch 0;
#X obj 100 110 % 360;
#X obj 100 80 + 90;
#X text 40 140 inverted;
#X text 250 140 upright;
#X obj 100 140 moses 180, f 20;
#X obj 240 180 bz/scale 360 180 0 1;
#X obj 100 180 bz/scale 0 180 0 1;
#X obj 100 40 inlet;
#X obj 100 260 outlet;
#X text 40 10 scale pitch such that 0 and 180 degrees both return 0.5
;
#X connect 0 0 4 0;
#X connect 1 0 0 0;
#X connect 4 0 6 0;
#X connect 4 1 5 0;
#X connect 5 0 8 0;
#X connect 6 0 8 0;
#X connect 7 0 1 0;
#X restore 140 260 pd map-pitch;
#X text 400 200 expression input parameters;
#X obj 192 102 inlet;
#X obj 190 140 switch~;
#X obj 220 810 bop.send;
#A saved master;
#X obj 220 600 bop.reverb;
#A saved 0.866848 0.516304 1.69565 0.0251917 0.521665 0 0;
#X connect 0 0 2 0;
#X connect 2 0 4 0;
#X connect 2 1 5 0;
#X connect 2 2 6 0;
#X connect 3 0 0 0;
#X connect 5 0 21 0;
#X connect 5 1 21 1;
#X connect 14 0 0 0;
#X connect 15 0 16 0;
#X connect 16 0 14 0;
#X connect 18 0 19 0;
#X connect 21 0 20 0;
#X connect 21 1 20 1;
