#N struct text float x float y text t;
#N canvas 360 23 720 855 12;
#X obj 330 1250 bop.mix;
#A saved 0 0.457282 0;
#X obj 407 591 bop.notefx;
#A saved 0 0.222857 1 0 50 64 1 47.2826 133.152;
#X obj 330 1070 bop.distortion;
#A saved 0.347261 0.0177828 1 1.54375 0.630435;
#X obj 330 890 bop.reverb;
#A saved 1.04105 0.285326 0.603261 0.837523 1 0 0;
#X obj 330 810 bop.harp;
#A saved 1;
#X obj 187 591 bop.notefx;
#A saved -0.582857 -1.63429 4 0 7.92683 16.75 1 6.52174 185.87;
#X obj 180 90 inlet;
#X obj 180 170 switch~;
#X msg 920 510 make this a note list to get more control, f 18;
#X obj 400 380 bop.ramp \$0;
#A saved 1 5.9 noteslider 0 1 0;
#X obj 330 1540 bop.send;
#A saved master;
#X obj 580 1210 inlet;
#X obj 180 130 tgl 15 0 empty empty empty 17 7 0 10 #fcfcfc #000000
#000000 1 1;
#X text 100 50 use to blur transition into sprint;
#X obj 330 1350 bop.tick;
#A saved 88;
#X obj 460 1460 s \$0-tick;
#X obj 400 340 r \$0-tick;
#X obj 680 400 bop.notelist;
#A saved d1\ a1\ d0\ f#3\ e3 0;
#X msg 880 340 note \$1;
#X obj 880 250 bng 15 250 50 0 empty empty empty 17 7 0 10 #fcfcfc
#000000 #000000;
#X msg 740 340 notelist f#4 g4;
#X obj 910 140 route noteslider;
#X msg 910 260 note \$1;
#X obj 910 200 int;
#X obj 910 230 change;
#X obj 910 170 * 6;
#X obj 980 199 change;
#X obj 980 230 sel 1;
#X obj 980 270 bng 15 250 50 0 empty empty empty 17 7 0 10 #fcfcfc
#000000 #000000;
#X obj 980 300 f;
#X obj 1050 300 + 1;
#X floatatom 980 330 5 0 0 0 - - -, f 5;
#X obj 980 170 > 0.8;
#X msg 642 232 notelist d1 a1 d0 f#3 e3;
#X connect 0 0 14 0;
#X connect 0 1 14 1;
#X connect 0 3 14 3;
#X connect 1 2 4 2;
#X connect 2 0 0 0;
#X connect 2 1 0 1;
#X connect 3 0 2 0;
#X connect 3 1 2 1;
#X connect 4 0 3 0;
#X connect 4 1 3 1;
#X connect 5 2 4 2;
#X connect 6 0 12 0;
#X connect 9 2 1 2;
#X connect 9 3 21 0;
#X connect 11 0 0 3;
#X connect 12 0 7 0;
#X connect 14 0 10 0;
#X connect 14 1 10 1;
#X connect 14 2 15 0;
#X connect 16 0 9 2;
#X connect 17 2 1 2;
#X connect 18 0 17 3;
#X connect 20 0 17 3;
#X connect 21 0 25 0;
#X connect 21 0 32 0;
#X connect 23 0 24 0;
#X connect 24 0 22 0;
#X connect 25 0 23 0;
#X connect 26 0 27 0;
#X connect 27 0 28 0;
#X connect 28 0 29 0;
#X connect 29 0 30 0;
#X connect 29 0 31 0;
#X connect 30 0 29 1;
#X connect 31 0 18 0;
#X connect 32 0 26 0;
#X connect 33 0 17 3;
#X coords 0 -1 1 1 256 229 1 326 1229;
