#N struct text float x float y text t;
#N canvas 0 23 1680 1005 12;
#X obj 110 -2200 inlet;
#X obj 110 -2100 lvn.stave;
#X floatatom 340 -2170 5 0 0 0 - - -, f 5;
#X floatatom 300 -2290 5 0 0 0 - - -, f 5;
#X floatatom 320 -2230 5 0 0 0 - - -, f 5;
#X msg 300 -2260 button \$1;
#X msg 320 -2200 playhead \$1;
#X obj 400 -2450 tgl 15 0 empty empty empty 17 7 0 10 #fcfcfc #000000
#000000 0 1;
#X floatatom 480 -2550 5 0 0 0 - - -, f 5;
#X floatatom 558 -2692 5 0 0 0 - - -, f 5;
#X msg 640 -2770 0 1;
#N canvas 0 22 450 300 prepend-set 0;
#X obj 40 80 list prepend set;
#X obj 40 110 list trim;
#X obj 13 26 inlet;
#X obj 13 183 outlet;
#X connect 0 0 1 0;
#X connect 1 0 3 0;
#X connect 2 0 0 0;
#X restore 640 -2820 pd prepend-set;
#X obj 400 -2880 route active relativepos distance coords, f 46;
#X text 430 -2450 useful for enabling/disbaling subpatch;
#X text 520 -2550 useful for controlling embedded hyperstaves \, and
spatial panning, f 64;
#X text 608 -2692 useful for volume automation;
#X text 680 -2770 useful for reusable generative algorithms;
#X obj 400 -2350 switch~;
#X obj 400 -2380 tgl 15 0 empty empty empty 17 7 0 10 #fcfcfc #000000
#000000 0 1;
#X floatatom 510 -2370 5 0 0 0 - - -, f 5;
#X text 428 -2472 ACTIVE;
#X text 518 -2572 RELATIVEPOS;
#X text 608 -2712 DISTANCE;
#X text 680 -2790 COORDS;
#N canvas 672 127 450 300 smooth-switch 0;
#X obj 40 110 line;
#X msg 40 80 \$1 750;
#X obj 40 180 change;
#X obj 40 40 inlet;
#X obj 90 180 outlet;
#X obj 40 210 outlet;
#X obj 40 150 > 0.001;
#X connect 0 0 4 0;
#X connect 0 0 6 0;
#X connect 1 0 0 0;
#X connect 2 0 5 0;
#X connect 3 0 1 0;
#X connect 6 0 2 0;
#X restore 400 -2410 pd smooth-switch;
#X text 550 -2370 👈 use to smoothly fade subpatch;
#X msg 340 -2140 message \$1;
#X text 430 -2260 control stave toggle;
#X text 430 -2200 control stave slider;
#X text 430 -2160 all other messages are forward to parent hyperstave
and are output from its bottom right outlet, f 35;
#X obj 400 -2920 lvn.localreceive stave-info;
#X obj 290 -2050 lvn.localsend stave-info;
#X text 110 -2260 communicates with parent hyperstave, f 16;
#X text 120 -2030 communicates with child hyperstave, f 16;
#X obj 510 -2340 lvn.localsend off;
#X obj 480 -1160 lvn.localreceive off;
#X obj 370 -1090 *~;
#X obj 480 -1130 change;
#X obj 440 -1090 *~;
#X obj 480 -2520 lvn.localsend pos;
#X obj 560 -2660 lvn.localsend distance;
#X obj 770 -2820 lvn.localsend coords;
#X text 1657 -828 🐉;
#X obj 370 -1300 bop.mix;
#A saved 0 0.01 1;
#X msg 690 -1570 64 127;
#X obj 1710 -1730 r h;
#X obj 1635 -1446 bop.notelist;
#A saved c3\ e3\ d3\ f#3\ e3\ g3\ f#3\ a3\ g3\ b3\ a3\ c4\ b3\ d4\ c4\ a3\ b3\ g3\ a3\ f#3\ g3\ e3\ f#3\ d3\ e3\ c3\ d3\ b2
0;
#X obj 1710 -1610 int;
#X msg 1710 -1530 note \$1;
#X obj 1710 -1570 change;
#X obj 1845 -1516 bz/prepend notelist;
#X msg 1945 -1766 c3 e3 d3 f#3 e3 g3 f#3 a3 g3 b3 a3 c4 b3 d4 c4 a3
b3 g3 a3 f#3 g3 e3 f#3 d3 e3 c3 d3 b2;
#X obj 2165 -1616 list length;
#X floatatom 2165 -1585 5 0 0 0 - - -, f 5;
#X obj 1710 -1700 / 360;
#X obj 1710 -1640 *;
#X obj 1905 -1206 bop.notelist;
#A saved e3\ f#3\ d3\ e3\ c3\ d3\ b2\ c3\ e3\ d3\ f#3\ e3\ g3\ f#3\ a3\ g3\ b3\ a3\ c4\ b3\ d4\ c4\ a3\ b3\ g3\ a3\ f#3\ g3
0;
#X obj 2125 -1656 t l l, f 6;
#X text 1945 -1796 C lydian up and down in running thirds;
#X obj 2131 -1277 bz/prepend notelist;
#X obj 2015 -1276 route notelist;
#X obj 2195 -1416 / 4;
#X obj 2125 -1366 zl rot 0, f 11;
#X text 1945 -1826 change the notelist from latitude and longitude
or similar;
#X obj 1825 -1796 loadbang;
#X obj 700 -1880 inlet;
#X obj 1690 -1170 lvn.localsend notes01;
#X obj 2090 -1060 lvn.localsend notes02;
#X obj 652 -1791 lvn.localreceive notes02;
#X obj 240 -1540 bop.glok;
#A saved 1;
#X obj 500 -1740 bop.notefx;
#A saved -0.297143 2.08 0 0 93.9024 102.25 1 22.8261 183.152;
#X obj 240 -1740 bop.notefx;
#A saved -0.582857 2.93714 0 0 94.5122 118 1 65.2174 170.652;
#X obj 392 -1791 lvn.localreceive notes01;
#X obj 500 -1540 bop.glok;
#A saved 1;
#X msg 570 -1370 amp \$1;
#X obj 760 -1440 lvn.localreceive pos;
#X msg 760 -1370 pan \$1;
#X obj 570 -1440 lvn.localreceive distance;
#X obj 570 -1400 bz/scale 0.5 0 0.6 1;
#X obj 760 -1400 bz/scale -0.2 1.2 1 -1;
#X obj 370 -1040 outlet~;
#X obj 440 -1040 outlet~;
#X connect 0 0 1 0;
#X connect 1 1 31 0;
#X connect 2 0 26 0;
#X connect 3 0 5 0;
#X connect 4 0 6 0;
#X connect 5 0 1 1;
#X connect 6 0 1 1;
#X connect 7 0 24 0;
#X connect 8 0 39 0;
#X connect 9 0 40 0;
#X connect 11 0 10 0;
#X connect 12 0 7 0;
#X connect 12 1 8 0;
#X connect 12 2 9 0;
#X connect 12 3 11 0;
#X connect 12 3 41 0;
#X connect 18 0 17 0;
#X connect 18 0 3 0;
#X connect 19 0 34 0;
#X connect 24 0 18 0;
#X connect 24 1 19 0;
#X connect 26 0 1 1;
#X connect 30 0 12 0;
#X connect 35 0 37 0;
#X connect 36 0 80 0;
#X connect 37 0 36 1;
#X connect 37 0 38 1;
#X connect 38 0 81 0;
#X connect 43 0 36 0;
#X connect 43 1 38 0;
#X connect 44 0 73 2;
#X connect 45 0 54 0;
#X connect 46 2 66 0;
#X connect 46 3 60 0;
#X connect 47 0 49 0;
#X connect 48 0 46 3;
#X connect 49 0 48 0;
#X connect 50 0 46 3;
#X connect 51 0 57 0;
#X connect 52 0 53 0;
#X connect 53 0 61 0;
#X connect 53 0 55 1;
#X connect 54 0 55 0;
#X connect 55 0 47 0;
#X connect 56 2 67 0;
#X connect 57 0 50 0;
#X connect 57 0 62 0;
#X connect 57 1 52 0;
#X connect 59 0 56 3;
#X connect 60 1 56 3;
#X connect 61 0 62 1;
#X connect 62 0 59 0;
#X connect 64 0 51 0;
#X connect 68 0 70 2;
#X connect 69 0 43 0;
#X connect 69 1 43 1;
#X connect 70 2 73 2;
#X connect 71 2 69 2;
#X connect 72 0 71 2;
#X connect 73 0 43 0;
#X connect 73 1 43 1;
#X connect 74 0 43 3;
#X connect 75 0 79 0;
#X connect 76 0 43 3;
#X connect 77 0 78 0;
#X connect 78 0 74 0;
#X connect 79 0 76 0;
