#N struct text float x float y text t;
#N canvas 732 23 948 1005 12;
#X obj 1470 1160 bop.mix;
#A saved 0 0.868287 0;
#X obj 1210 430 bop.notefx;
#A saved 0.428571 -2.57143 4 0 100 124 1 38.0435 44.5652;
#X obj 50 40 inlet;
#X obj 50 100 switch~;
#X obj 1470 750 bop.casio;
#A saved 1.50272 1.82609 0.88587 0.01 0.902174 0.684783 0 0.788043
0.434783 0 0;
#X obj 430 70 lvn.localreceive~ submix-l;
#X obj 490 100 lvn.localreceive~ submix-r;
#X obj 360 360 bop.mix;
#A saved 0 0.886589 -0.188976;
#X obj 1470 1300 lvn.localsend~ submix-l;
#X obj 1530 1270 lvn.localsend~ submix-r;
#X obj 770 10 inlet;
#X obj 360 450 bop;
#A saved 516.944;
#X obj 50 70 tgl 15 0 empty empty empty 17 7 0 10 #fcfcfc #000000 #000000
1 1;
#X obj 760 40 route pitch;
#X obj 750 100 s \$0-pitch;
#X obj 260 2070 lvn.localsend~ submix-l;
#X obj 330 2040 lvn.localsend~ submix-r;
#X obj 960 180 route bpm;
#X obj 960 270 int;
#X obj 960 299 change;
#X obj 230 90 inlet;
#X obj 360 1020 route cell;
#X obj 360 1060 route 5 13;
#X obj 410 1350 bop.notefx;
#A saved 0.56 0 0 1 100 101.5 1 19.0217 64.1304;
#X obj 630 1350 bop.notefx;
#A saved -0.0114286 -0.142857 0 0 100 97 1 19.0217 57.6087;
#X msg 360 1100 0 60;
#X msg 410 1100 12 30;
#X msg 460 1100 12 100;
#X obj 650 1050 bop.notelist;
#A saved d3\ f#3\ e3\ g3 0.075;
#X obj 880 40 s inlet-data-\$0;
#X obj 960 140 r inlet-data-\$0;
#X obj 746 906 r inlet-data-\$0;
#X obj 726 946 route note bpm;
#X obj 900 580 bop.rhythm \$0;
#A saved 16.5 2.14226 1 1 1\ 0\ 0\ 0\ 0\ 0\ 0\ 0\ 1\ 0\ 0\ 0\ 0\ 0\ 0\ 0\ 0\ 0\ 0\ 0\ 0\ 0\ 0\ 0
;
#X msg 706 1006 note \$1;
#X obj -734 1126 bop.rhythm \$0;
#A saved 16.75 3.33631 1 1 1\ 1\ 1\ 0\ 0\ 0\ 0\ 0\ 0\ 0\ 0\ 0\ 0\ 0\ 0\ 0\ 0\ 0\ 0\ 0\ 0\ 0\ 0\ 0
;
#X obj -350 1270 bop.notelist;
#A saved d3\ f#3\ e3\ g3 0;
#X obj -254 1126 r inlet-data-\$0;
#X obj -497 1254 route note;
#X obj -380 1211 +;
#X msg -380 1240 note \$1;
#X obj -274 1166 route note bpm;
#X obj 631 973 +;
#X obj 390 670 bop.rhythm \$0;
#A saved 16 3.61726 1 1 1\ 0\ 0\ 0\ 0\ 0\ 0\ 0\ 0\ 0\ 0\ 0\ 0\ 0\ 0\ 0\ 0\ 0\ 0\ 0\ 0\ 0\ 0\ 0
;
#X obj 360 590 outlet~;
#X obj 420 590 outlet~;
#X obj 40 1570 bop.rhodes;
#A saved 1;
#X obj 710 1610 bop.rhodes;
#A saved 1;
#X obj 630 1920 bop.distortion;
#A saved 0.576629 0.01 0.617989 0.480163 0;
#X obj 1470 1030 bop.mix;
#A saved 0 1.20323 0;
#X obj 660 1750 bop.mix;
#A saved 1 0.924359 -0.188976;
#X obj 50 1660 bop.mix;
#A saved 0 1.36365 0.472441;
#X floatatom 1013 1755 0 0 120 0 - - -;
#X text 1054 1755 level \, dB;
#X floatatom 1057 1779 0 0 100 0 - - -;
#X text 1098 1779 liveness \, 0-100;
#X floatatom 1101 1805 0 0 120 0 - - -;
#X floatatom 1145 1829 0 0 120 0 - - -;
#X text 1132 1805 crossover frequency \, Hz.;
#X text 1178 1830 HF damping \, percent;
#X floatatom 1147 1724 5 0 0 0 - - -, f 5;
#X obj 970 1050 bop.notelist;
#A saved d3\ f#3\ e3\ g3 0;
#X obj 1066 906 r inlet-data-\$0;
#X obj 1046 946 route note bpm;
#X msg 1026 1006 note \$1;
#X obj 951 973 +;
#X obj 625 883 route note;
#X obj 990 820 route note;
#X obj 574 593 outlet;
#X obj 1240 310 bop.notelist;
#A saved d3\ f#3\ e3\ g3 0;
#X obj 1500 230 r inlet-data-\$0;
#X obj 1557 263 route note bpm;
#X obj 1470 10 bop.rhythm \$0;
#A saved 6.625 3.19583 1 1 1\ 0\ 0\ 0\ 0\ 0\ 0\ 0\ 0\ 0\ 0\ 0\ 0\ 0\ 0\ 0\ 0\ 0\ 0\ 0\ 0\ 0\ 0\ 0
;
#X obj 960 220 sub.bop.util.scale 20 300 0 4;
#X obj 940 340 f;
#X obj 1128 297 route cell;
#X obj 1128 326 bng 15 250 50 0 empty empty empty 17 7 0 10 #fcfcfc
#000000 #000000;
#X obj 1450 640;
#X obj 1220 620 bop.harp;
#A saved 0;
#X msg 970 370 note \$1;
#X obj 473 999 route;
#X obj 141 1408 bop.glok;
#A saved 1;
#X obj 970 1860 rev3~ 80 98 880 20;
#X connect 0 0 8 0;
#X connect 0 1 9 0;
#X connect 1 2 78 2;
#X connect 2 0 12 0;
#X connect 4 0 49 0;
#X connect 4 1 49 1;
#X connect 5 0 7 0;
#X connect 6 0 7 1;
#X connect 7 0 11 0;
#X connect 7 1 11 1;
#X connect 7 2 11 2;
#X connect 7 3 11 3;
#X connect 10 0 13 0;
#X connect 10 0 29 0;
#X connect 11 0 44 0;
#X connect 11 1 45 0;
#X connect 11 3 68 0;
#X connect 12 0 3 0;
#X connect 13 0 14 0;
#X connect 13 1 7 3;
#X connect 17 0 73 0;
#X connect 18 0 19 0;
#X connect 19 0 74 1;
#X connect 21 0 22 0;
#X connect 22 0 25 0;
#X connect 22 1 26 0;
#X connect 22 2 27 0;
#X connect 23 2 81 2;
#X connect 24 2 47 2;
#X connect 28 2 23 2;
#X connect 28 3 23 3;
#X connect 30 0 17 0;
#X connect 31 0 32 0;
#X connect 32 0 42 1;
#X connect 32 2 28 3;
#X connect 33 3 67 0;
#X connect 34 0 28 3;
#X connect 35 3 38 0;
#X connect 37 0 41 0;
#X connect 38 0 39 0;
#X connect 39 0 40 0;
#X connect 40 0 36 3;
#X connect 41 0 39 1;
#X connect 41 2 36 3;
#X connect 42 0 34 0;
#X connect 43 3 66 0;
#X connect 46 0 51 0;
#X connect 46 1 51 1;
#X connect 47 0 50 0;
#X connect 47 1 50 1;
#X connect 48 0 15 0;
#X connect 48 1 16 0;
#X connect 49 0 0 0;
#X connect 49 1 0 1;
#X connect 49 2 0 2;
#X connect 49 3 0 3;
#X connect 50 0 15 0;
#X connect 50 1 16 0;
#X connect 50 1 82 1;
#X connect 51 0 15 0;
#X connect 51 1 16 0;
#X connect 51 1 82 0;
#X connect 52 0 82 2;
#X connect 61 2 24 2;
#X connect 62 0 63 0;
#X connect 63 0 65 1;
#X connect 63 2 61 3;
#X connect 64 0 61 3;
#X connect 65 0 64 0;
#X connect 66 0 42 0;
#X connect 67 0 65 0;
#X connect 69 2 1 2;
#X connect 70 0 71 0;
#X connect 71 2 69 3;
#X connect 72 3 75 0;
#X connect 73 0 18 0;
#X connect 74 0 79 0;
#X connect 75 0 76 0;
#X connect 76 0 74 0;
#X connect 78 0 4 0;
#X connect 78 1 4 1;
#X connect 78 2 4 2;
#X connect 79 0 69 3;
#X connect 81 0 51 0;
#X connect 81 1 51 1;
#X connect 81 2 46 2;
#X connect 82 0 48 0;
#X connect 82 1 48 1;
#X coords 0 -1 1 1 245 253 1 341 329;
