#N canvas 949 23 731 1005 12;
#X obj 1220 310 bop.noteslider;
#A saved 0 1 2.66972;
#X obj 1220 620 bop.rhodes;
#A saved 1;
#X obj 1470 1020 bop.distortion;
#A saved 0.563447 0.234188 0.596467 0.805435 0.586957;
#X obj 1470 1160 bop.mix;
#A saved 0 0.346784 0;
#X obj 1470 350 bop.synth;
#A saved 0.0951176 0.782609 0.228261 0.961957 0.0163043 0.532609 0.793478
1 0.0316228 0.0591206 0.135031 1 0 0.196552 0.316228;
#X obj 1220 420 bop.notefx;
#A saved -7.28571 -0.714286 0 0 100 47.5 1 38.0435 70.6522;
#X obj 360 590 bop.send;
#A saved master;
#X msg 1550 100 note 6;
#X msg 1780 100 note 1;
#X msg 1620 99 note 11;
#X msg 1840 100 note 6;
#X obj 1550 70 bng 15 250 50 0 empty empty empty 17 7 0 10 #fcfcfc
#000000 #000000;
#X obj 1780 71 bng 15 250 50 0 empty empty empty 17 7 0 10 #fcfcfc
#000000 #000000;
#X obj 50 40 inlet;
#X obj 50 100 switch~;
#X obj 1470 750 bop.casio;
#A saved 0 0.646739 0.0978261 0.01 0.396739 0.777174 0 0.36413 0.434783
0.217391 1;
#X obj 1220 1090 bop.distortion;
#A saved 0.0098 0.01 0.176793 1.52826 0.38587;
#X obj 1210 1400 lvn.localsend~ submix-l;
#X obj 1300 1370 lvn.localsend~ submix-r;
#X obj 430 70 lvn.localreceive~ submix-l;
#X obj 490 100 lvn.localreceive~ submix-r;
#X obj 360 340 bop.mix;
#A saved 0 0.871189 0;
#X obj 1470 1300 lvn.localsend~ submix-l;
#X obj 1530 1270 lvn.localsend~ submix-r;
#X obj 1220 0 bop.ramp \$0;
#A saved 1 5.9 noteslider -0.25 1 0;
#X obj 1220 150 bop.transform \$0;
#A saved noteslider 0 1 4.07979 1 0;
#X obj 1470 140 bop.euclidean \$0;
#A saved 8.34783 4.43478 0.26087 4 4.63571 11 3.17857 1 1 127;
#X obj 1690 140 bop.euclidean \$0;
#A saved 8.47826 2.21739 0.26087 8 2.95 6.67857 4.45 1 1 127;
#X obj 770 10 inlet;
#X obj 360 440 bop;
#A saved 222.02;
#X obj 50 70 tgl 15 0 empty empty empty 17 7 0 10 #fcfcfc #000000 #000000
1 1;
#X obj 760 40 route pitch;
#X obj 750 100 s \$0-pitch;
#X obj 80 350 lvn.hyperstave 3;
#X obj 80 260 inlet hyperstave;
#X obj 80 590 route 0 1 2;
#N canvas 0 23 1680 1005 descending-lydian 0;
#X obj 140 -370 inlet;
#X obj 510 70 bop.mix;
#A saved 0 0.605256 0.566929;
#X obj 796 -527 poly 2 1;
#X obj 796 -367 gate 2;
#X obj 826 -397 pack f f;
#X obj 773 -728 route cell;
#X text 226 -597 This sketch is useful to transition betweentempo brackets
because of is elastic termporal nature;
#X text 70 -560 These samplers retrigger on bpm changes.;
#X text 70 -540 The initial dissonance is useful to disguise any harmonic
changes between tempos.;
#X obj 586 -957 bop.rhythm \$0;
#A saved 16 1.58036 1 1 1\ 0\ 0\ 0\ 1\ 0\ 0\ 0\ 1\ 0\ 0\ 0\ 1\ 0\ 0\ 0\ 0\ 0\ 0\ 0\ 0\ 0\ 0\ 0
;
#X obj 766 -677 route 5 13;
#X obj 886 -497 r \$0-pitch;
#X obj 514 227 outlet~;
#X obj 574 197 outlet~;
#X obj 300 -300 bop.notefx;
#A saved 0.56 1.65143 0 0 100 35.5 1 17.9348 0;
#X obj 630 -310 bop.notefx;
#A saved -0.0114286 0.937143 0 0 100 104.5 1 14.6739 0;
#X msg 716 -587 0 60;
#X msg 766 -587 12 30;
#X msg 816 -587 12 100;
#X obj 816 -437 +;
#X obj 816 -467 + 12;
#X obj 610 -50 bop.harp;
#A saved 1;
#X obj 380 -80 bop.harp;
#A saved 1;
#X obj 179 66 bop.mix;
#A saved 0 0.605256 -0.299213;
#X obj 910 -160 bop.synth;
#A saved 0.01 0.630435 0.961957 0 0.179348 0 0.304348 1 0.01 0.01 0.437829
0.131694 0 0.0324242 0.01;
#X obj 60 -280 bop.synth;
#A saved 0.01 0.673913 0.961957 0 0.190217 0 0.211957 1 0.01 0.0300788
0.0367466 0.116203 0 0.0324242 0.01;
#X connect 1 0 12 0;
#X connect 1 1 13 0;
#X connect 2 0 3 0;
#X connect 2 1 20 0;
#X connect 2 2 4 1;
#X connect 3 0 14 2;
#X connect 3 1 15 2;
#X connect 4 0 3 1;
#X connect 5 0 10 0;
#X connect 9 3 5 0;
#X connect 10 0 16 0;
#X connect 10 1 17 0;
#X connect 10 2 18 0;
#X connect 11 0 19 1;
#X connect 14 2 22 2;
#X connect 14 2 25 2;
#X connect 15 2 21 2;
#X connect 15 2 24 2;
#X connect 16 0 2 0;
#X connect 17 0 2 0;
#X connect 18 0 2 0;
#X connect 19 0 4 0;
#X connect 20 0 19 0;
#X connect 21 0 1 0;
#X connect 21 1 1 1;
#X connect 22 0 23 0;
#X connect 22 1 23 1;
#X connect 23 0 12 0;
#X connect 23 1 13 0;
#X connect 24 0 1 0;
#X connect 24 1 1 1;
#X connect 25 0 23 0;
#X connect 25 1 23 1;
#X restore 70 710 pd descending-lydian;
#X obj 84 823 lvn.localsend~ submix-l;
#X obj 154 793 lvn.localsend~ submix-r;
#X obj 970 512 unpack f f;
#X obj 980 652 pack;
#X obj 910 100 route bpm;
#X obj 920 170 sub.bop.util.scale 20 1000 0 4;
#X obj 960 270 int;
#X obj 960 299 change;
#X obj 970 570 +;
#X obj 960 328 * 12;
#X obj 1220 1250 bop.mix;
#A saved 1 0.367335 0;
#X obj 1126 453 poly 1 1;
#X obj 1109 509 pack f f f;
#X msg 1109 538 \$2 \$3;
#X connect 0 2 5 2;
#X connect 1 1 15 1;
#X connect 2 0 3 0;
#X connect 2 1 3 1;
#X connect 2 2 3 2;
#X connect 2 3 3 3;
#X connect 3 0 22 0;
#X connect 3 1 23 0;
#X connect 5 2 48 0;
#X connect 7 0 26 3;
#X connect 8 0 27 3;
#X connect 9 0 26 3;
#X connect 10 0 27 3;
#X connect 11 0 7 0;
#X connect 11 0 8 0;
#X connect 12 0 9 0;
#X connect 12 0 10 0;
#X connect 13 0 30 0;
#X connect 15 0 2 0;
#X connect 15 1 2 1;
#X connect 16 0 47 0;
#X connect 16 1 47 1;
#X connect 19 0 21 0;
#X connect 20 0 21 1;
#X connect 21 0 29 0;
#X connect 21 1 29 1;
#X connect 21 2 29 2;
#X connect 21 3 29 3;
#X connect 24 2 25 2;
#X connect 24 3 25 3;
#X connect 25 2 0 2;
#X connect 25 3 0 3;
#X connect 26 2 4 2;
#X connect 27 2 4 2;
#X connect 28 0 31 0;
#X connect 29 0 6 0;
#X connect 29 1 6 1;
#X connect 30 0 14 0;
#X connect 31 0 32 0;
#X connect 31 1 21 3;
#X connect 31 1 41 0;
#X connect 33 0 35 0;
#X connect 34 0 33 0;
#X connect 35 0 36 0;
#X connect 36 0 37 0;
#X connect 36 1 38 0;
#X connect 39 0 45 0;
#X connect 39 1 40 1;
#X connect 40 0 1 2;
#X connect 40 0 15 2;
#X connect 41 0 42 0;
#X connect 42 0 43 0;
#X connect 43 0 44 0;
#X connect 44 0 46 0;
#X connect 45 0 40 0;
#X connect 46 0 45 1;
#X connect 47 0 17 0;
#X connect 47 1 18 0;
#X connect 48 0 49 0;
#X connect 48 1 49 1;
#X connect 48 2 49 2;
#X connect 49 0 50 0;
#X connect 50 0 39 0;
#X coords 0 -1 1 1 528 232 1 64 332;
