#N struct text float x float y text t;
#N canvas 465 23 1215 1005 12;
#X obj 1220 310 bop.noteslider;
#A saved 0 1 2.66972;
#X obj 1220 620 bop.rhodes;
#A saved 0;
#X obj 1470 1160 bop.mix;
#A saved 1 0.868287 0;
#X obj 1220 420 bop.notefx;
#A saved 0.428571 -2.42857 0 0 100 38.5 1 38.0435 70.6522;
#X obj 50 40 inlet;
#X obj 50 100 switch~;
#X obj 1470 750 bop.casio;
#A saved 3.38587 3.30978 0.0271739 0.01 0.76087 1 0 1 0.434783 0.516304
0;
#X obj 430 70 lvn.localreceive~ submix-l;
#X obj 490 100 lvn.localreceive~ submix-r;
#X obj 360 360 bop.mix;
#A saved 0 0.782289 -0.188976;
#X obj 1470 1300 lvn.localsend~ submix-l;
#X obj 1530 1270 lvn.localsend~ submix-r;
#X obj 1220 0 bop.ramp \$0;
#A saved 1 5.9 noteslider -0.25 1 0;
#X obj 1220 150 bop.transform \$0;
#A saved noteslider 0 1 4.07979 1 0;
#X obj 770 10 inlet;
#X obj 360 460 bop;
#A saved 77.0774;
#X obj 50 70 tgl 15 0 empty empty empty 17 7 0 10 #fcfcfc #000000 #000000
1 1;
#X obj 760 40 route pitch;
#X obj 750 100 s \$0-pitch;
#X obj 200 1900 lvn.localsend~ submix-l;
#X obj 270 1870 lvn.localsend~ submix-r;
#X obj 970 512 unpack f f;
#X obj 980 652 pack;
#X obj 960 180 route bpm;
#X obj 960 220 sub.bop.util.scale 20 1000 0 4;
#X obj 960 270 int;
#X obj 960 299 change;
#X obj 970 570 +;
#X obj 960 328 * 12;
#X obj 1126 453 poly 1 1;
#X obj 1109 509 pack f f f;
#X msg 1109 538 \$2 \$3;
#X obj 230 90 inlet;
#X obj 360 1020 route cell;
#X obj 360 1060 route 5 13;
#X obj 400 1420 bop.notefx;
#A saved 0.56 0 0 0 100 104.5 1 17.9348 5.43478;
#X obj 620 1420 bop.notefx;
#A saved -0.0114286 0 0 0 100 104.5 1 14.6739 21.7391;
#X msg 360 1100 0 60;
#X msg 410 1100 12 30;
#X msg 460 1100 12 100;
#X obj 784 904 bop.notelist;
#A saved b1\ d2\ g2 0;
#X obj 880 40 s inlet-data-\$0;
#X obj 960 140 r inlet-data-\$0;
#X obj 880 760 r inlet-data-\$0;
#X obj 610 1330 pack f f f, f 19;
#X msg 810 1180 stop;
#X obj 610 1360 route 1 2 3;
#X obj 860 800 route note bpm;
#X obj 610 1200 poly 3 1, f 19;
#X obj 740 450 bop.rhythm \$0;
#A saved 8.375 3.19583 1 1 1\ 0\ 0\ 0\ 1\ 0\ 0\ 0\ 0\ 0\ 0\ 0\ 0\ 0\ 0\ 0\ 0\ 0\ 0\ 0\ 0\ 0\ 0\ 0
;
#X obj 770 690 route note;
#X msg 840 860 note \$1;
#X obj -734 1126 bop.rhythm \$0;
#A saved 16.75 3.33631 1 1 1\ 1\ 1\ 0\ 0\ 0\ 0\ 0\ 0\ 0\ 0\ 0\ 0\ 0\ 0\ 0\ 0\ 0\ 0\ 0\ 0\ 0\ 0\ 0
;
#X obj -350 1270 bop.notelist;
#A saved b1\ d2\ g2 0;
#X obj -254 1126 r inlet-data-\$0;
#X obj -497 1254 route note;
#X obj -380 1211 +;
#X msg -380 1240 note \$1;
#X obj -274 1166 route note bpm;
#X obj 765 827 +;
#X obj 500 790 bop.rhythm \$0;
#A saved 4.5 4.31964 1 1 1\ 1\ 1\ 1\ 0\ 0\ 0\ 0\ 0\ 0\ 0\ 0\ 0\ 0\ 0\ 0\ 0\ 0\ 0\ 0\ 0\ 0\ 0\ 0
;
#X obj 720 770 + 1;
#X obj 360 590 outlet~;
#X obj 420 590 outlet~;
#X obj 40 1570 bop.rhodes;
#A saved 1;
#X obj 710 1610 bop.rhodes;
#A saved 1;
#X obj 420 1740 bop.distortion;
#A saved 0.800724 0.591206 0.171413 0.30462 0;
#X obj 1470 1030 bop.mix;
#A saved 0 0.898504 0;
#X obj 710 1679 bop.mix;
#A saved 0 1.06168 0.582677;
#X obj 50 1660 bop.mix;
#A saved 0 1.0183 -0.551181;
#X floatatom 1016 1571 0 0 120 0 - - -;
#X text 1057 1571 level \, dB;
#X floatatom 1060 1595 0 0 100 0 - - -;
#X text 1101 1595 liveness \, 0-100;
#X floatatom 1104 1621 0 0 120 0 - - -;
#X floatatom 1148 1645 0 0 120 0 - - -;
#X text 1135 1621 crossover frequency \, Hz.;
#X text 1181 1646 HF damping \, percent;
#X floatatom 1150 1540 5 0 0 0 - - -, f 5;
#X obj 973 1676 rev2~ 50 98 3000 20;
#X obj 690 220 bop.rhythm \$0;
#A saved 3 5.9 1 1 1\ 1\ 1\ 0\ 0\ 0\ 0\ 0\ 0\ 0\ 0\ 0\ 0\ 0\ 0\ 0\ 0\ 0\ 0\ 0\ 0\ 0\ 0\ 0
;
#X connect 0 2 3 2;
#X connect 1 0 6 0;
#X connect 1 1 6 1;
#X connect 2 0 10 0;
#X connect 2 1 11 0;
#X connect 3 2 29 0;
#X connect 4 0 16 0;
#X connect 6 0 67 0;
#X connect 6 1 67 1;
#X connect 7 0 9 0;
#X connect 8 0 9 1;
#X connect 9 0 15 0;
#X connect 9 1 15 1;
#X connect 9 2 15 2;
#X connect 9 3 15 3;
#X connect 12 2 13 2;
#X connect 12 3 13 3;
#X connect 13 2 0 2;
#X connect 13 3 0 3;
#X connect 14 0 17 0;
#X connect 14 0 41 0;
#X connect 15 0 62 0;
#X connect 15 1 63 0;
#X connect 16 0 5 0;
#X connect 17 0 18 0;
#X connect 17 1 9 3;
#X connect 21 0 27 0;
#X connect 21 1 22 1;
#X connect 22 0 1 2;
#X connect 22 0 6 2;
#X connect 23 0 24 0;
#X connect 24 0 25 0;
#X connect 25 0 26 0;
#X connect 26 0 28 0;
#X connect 27 0 22 0;
#X connect 28 0 27 1;
#X connect 29 0 30 0;
#X connect 29 1 30 1;
#X connect 29 2 30 2;
#X connect 30 0 31 0;
#X connect 31 0 21 0;
#X connect 33 0 34 0;
#X connect 34 0 37 0;
#X connect 34 1 38 0;
#X connect 34 2 39 0;
#X connect 35 2 64 2;
#X connect 36 2 65 2;
#X connect 40 2 48 0;
#X connect 40 3 35 3;
#X connect 40 3 36 3;
#X connect 42 0 23 0;
#X connect 43 0 47 0;
#X connect 44 0 46 0;
#X connect 45 0 48 0;
#X connect 46 0 35 2;
#X connect 46 1 36 2;
#X connect 46 2 64 2;
#X connect 47 0 59 1;
#X connect 47 2 40 3;
#X connect 48 0 44 0;
#X connect 48 1 44 1;
#X connect 48 2 44 2;
#X connect 49 3 50 0;
#X connect 50 0 61 0;
#X connect 51 0 40 3;
#X connect 52 3 55 0;
#X connect 54 0 58 0;
#X connect 55 0 56 0;
#X connect 56 0 57 0;
#X connect 57 0 53 3;
#X connect 58 0 56 1;
#X connect 58 2 53 3;
#X connect 59 0 51 0;
#X connect 60 3 50 0;
#X connect 61 0 59 0;
#X connect 64 0 69 0;
#X connect 64 1 69 1;
#X connect 65 0 68 0;
#X connect 65 1 68 1;
#X connect 66 0 19 0;
#X connect 66 1 20 0;
#X connect 67 0 2 0;
#X connect 67 1 2 1;
#X connect 67 2 2 2;
#X connect 67 3 2 3;
#X connect 68 0 66 0;
#X connect 68 1 66 1;
#X connect 68 1 79 0;
#X connect 69 0 66 0;
#X connect 69 1 66 1;
#X connect 69 1 79 0;
#X connect 70 0 79 1;
#X connect 72 0 79 2;
#X connect 74 0 79 3;
#X connect 75 0 79 4;
#X connect 78 0 79 3;
#X connect 79 0 66 0;
#X connect 79 1 66 1;
#X connect 80 3 50 0;
#X coords 0 -1 1 1 245 253 1 341 329;
