#N canvas 670 378 450 300 12;
#X obj 100 20 inlet;
#X symbolatom 100 100 28 0 0 0 - - -, f 28;
#X obj 320 30 tosymbol;
#X obj 380 110 symbol;
#X obj 340 60 t s s b;
#X symbolatom 100 120 28 0 0 0 - - -, f 28;
#X obj 380 190 symbol;
#X obj 387 152 t s s b;
#X symbolatom 100 140 28 0 0 0 - - -, f 28;
#X obj 30 50 loadbang;
#X msg 30 80 ...;
#X obj 30 110 tosymbol;
#X obj 100 60 outlet;
#X connect 0 0 2 0;
#X connect 0 0 12 0;
#X connect 2 0 4 0;
#X connect 3 0 7 0;
#X connect 4 0 1 0;
#X connect 4 1 3 1;
#X connect 4 2 3 0;
#X connect 6 0 8 0;
#X connect 7 0 5 0;
#X connect 7 1 6 1;
#X connect 7 2 6 0;
#X connect 9 0 10 0;
#X connect 10 0 11 0;
#X connect 11 0 1 0;
#X connect 11 0 5 0;
#X connect 11 0 8 0;
#X coords 0 -1 1 1 200 60 1 100 100;
