#N canvas 720 23 720 855 12;
#X obj 370 230 inlet;
#X symbolatom 100 520 28 0 0 0 - - -, f 28;
#X obj 320 300 tosymbol;
#X obj 420 400 symbol;
#X obj 320 330 t s s b;
#X symbolatom 100 540 28 0 0 0 - - -, f 28;
#X obj 480 520 symbol;
#X obj 427 442 t s s b;
#X symbolatom 100 560 28 0 0 0 - - -, f 28;
#X obj 170 310 loadbang;
#X msg 170 340 ...;
#X obj 170 370 tosymbol;
#X obj 370 270 outlet;
#X obj 310 440 list length;
#X floatatom 310 520 5 0 0 0 - - -, f 5;
#X obj 310 390 fromsymbol;
#X obj 540 480 list length;
#X obj 540 430 fromsymbol;
#X floatatom 310 540 5 0 0 0 - - -, f 5;
#X obj 480 640 list length;
#X obj 480 590 fromsymbol;
#X floatatom 310 560 5 0 0 0 - - -, f 5;
#X obj 100 500 bng 15 250 50 0 empty empty empty 17 7 0 10 #fcfcfc
#000000 #000000;
#X text 120 500 message;
#X text 300 500 length;
#X obj 240 500 bng 15 250 50 0 empty empty clear 17 7 0 10 #fcfcfc
#000000 #000000;
#X connect 0 0 2 0;
#X connect 0 0 12 0;
#X connect 0 0 22 0;
#X connect 2 0 4 0;
#X connect 3 0 7 0;
#X connect 4 0 1 0;
#X connect 4 0 15 0;
#X connect 4 1 3 1;
#X connect 4 2 3 0;
#X connect 6 0 8 0;
#X connect 6 0 20 0;
#X connect 7 0 5 0;
#X connect 7 0 17 0;
#X connect 7 1 6 1;
#X connect 7 2 6 0;
#X connect 9 0 10 0;
#X connect 10 0 11 0;
#X connect 11 0 1 0;
#X connect 11 0 5 0;
#X connect 11 0 8 0;
#X connect 13 0 14 0;
#X connect 15 0 13 0;
#X connect 16 0 18 0;
#X connect 17 0 16 0;
#X connect 19 0 21 0;
#X connect 20 0 19 0;
#X connect 25 0 10 0;
#X coords 0 -1 1 1 250 80 2 100 500;
