#N canvas 615 23 450 490 10;
#X msg 70 170 \$1 \$2 \$3 \$4;
#X msg 170 170 \$2 \$1 \$3 \$4;
#X msg 70 230 \$1 \$3 \$2 \$4;
#X msg 70 290 \$1 \$4 \$3 \$2;
#X msg 70 200 \$1 \$2 \$4 \$3;
#X msg 70 260 \$1 \$3 \$4 \$2;
#X msg 70 320 \$1 \$4 \$2 \$3;
#X msg 170 200 \$2 \$1 \$4 \$3;
#X msg 170 230 \$2 \$3 \$1 \$4;
#X msg 170 260 \$2 \$3 \$4 \$1;
#X msg 172 289 \$2 \$4 \$3 \$1;
#X msg 170 320 \$2 \$4 \$1 \$3;
#X msg 260 170 \$3 \$1 \$2 \$4;
#X msg 260 200 \$3 \$1 \$4 \$2;
#X msg 260 230 \$3 \$2 \$1 \$4;
#X msg 260 260 \$3 \$2 \$4 \$1;
#X msg 260 290 \$3 \$4 \$1 \$2;
#X msg 260 320 \$3 \$4 \$2 \$1;
#X msg 350 170 \$4 \$1 \$2 \$3;
#X msg 350 200 \$4 \$1 \$3 \$2;
#X msg 350 230 \$4 \$2 \$1 \$3;
#X msg 350 260 \$4 \$2 \$3 \$1;
#X msg 350 290 \$4 \$3 \$1 \$2;
#X msg 350 320 \$4 \$3 \$2 \$1;
#X obj 70 120 gate 24;
#X obj 70 410 outlet;
#X obj 70 70 inlet;
#X obj 390 70 inlet;
#X text 310 70 choose order;
#X text 110 70 quaternion in;
#X connect 0 0 25 0;
#X connect 1 0 25 0;
#X connect 2 0 25 0;
#X connect 3 0 25 0;
#X connect 4 0 25 0;
#X connect 5 0 25 0;
#X connect 6 0 25 0;
#X connect 7 0 25 0;
#X connect 8 0 25 0;
#X connect 9 0 25 0;
#X connect 10 0 25 0;
#X connect 11 0 25 0;
#X connect 12 0 25 0;
#X connect 13 0 25 0;
#X connect 14 0 25 0;
#X connect 15 0 25 0;
#X connect 16 0 25 0;
#X connect 17 0 25 0;
#X connect 18 0 25 0;
#X connect 19 0 25 0;
#X connect 20 0 25 0;
#X connect 21 0 25 0;
#X connect 22 0 25 0;
#X connect 23 0 25 0;
#X connect 24 0 0 0;
#X connect 24 1 4 0;
#X connect 24 2 2 0;
#X connect 24 3 5 0;
#X connect 24 4 3 0;
#X connect 24 5 6 0;
#X connect 24 6 1 0;
#X connect 24 7 7 0;
#X connect 24 8 8 0;
#X connect 24 9 9 0;
#X connect 24 10 10 0;
#X connect 24 11 11 0;
#X connect 24 12 12 0;
#X connect 24 13 13 0;
#X connect 24 14 14 0;
#X connect 24 15 15 0;
#X connect 24 16 16 0;
#X connect 24 17 17 0;
#X connect 24 18 18 0;
#X connect 24 19 19 0;
#X connect 24 20 20 0;
#X connect 24 21 21 0;
#X connect 24 22 22 0;
#X connect 24 23 23 0;
#X connect 26 0 24 1;
#X connect 27 0 24 0;
