#N canvas 840 23 840 491 12;
#X obj 100 160 lvn.hyperstave 3;
#X text 160 130 Elevation;
#X obj 120 100 r pitch;
#X obj 100 260 route 0 1 2, f 27;
#X msg 30 100 connect 0;
#N canvas 892 110 450 300 up 0;
#X obj 100 100 inlet;
#X obj 100 150 lvn.stave;
#X connect 0 0 1 0;
#X restore 100 310 pd up;
#N canvas 840 536 840 491 level 0;
#X obj 100 100 inlet;
#X obj 100 300 lvn.hyperstave 4;
#X obj 100 420 route 0 1 2 3;
#N canvas 892 110 450 300 north 0;
#X obj 100 100 inlet;
#X obj 100 150 lvn.stave;
#X connect 0 0 1 0;
#X restore 100 540 pd north;
#N canvas 892 110 450 300 east 0;
#X obj 100 100 inlet;
#X obj 100 150 lvn.stave;
#X connect 0 0 1 0;
#X restore 120 510 pd east;
#N canvas 892 110 450 300 south 0;
#X obj 100 100 inlet;
#X obj 100 150 lvn.stave;
#X connect 0 0 1 0;
#X restore 140 480 pd south;
#N canvas 892 110 450 300 west 0;
#X obj 100 100 inlet;
#X obj 100 150 lvn.stave;
#X connect 0 0 1 0;
#X restore 160 450 pd west;
#X obj 120 190 r h;
#X obj 121 229 / 360;
#X msg 120 260 hue \$1;
#X obj 100 130 lvn.stave;
#X connect 0 0 10 0;
#X connect 1 0 2 0;
#X connect 2 0 3 0;
#X connect 2 1 4 0;
#X connect 2 2 5 0;
#X connect 2 3 6 0;
#X connect 7 0 8 0;
#X connect 8 0 9 0;
#X connect 9 0 1 0;
#X connect 10 0 1 0;
#X restore 160 310 pd level;
#N canvas 892 110 450 300 down 0;
#X obj 100 100 inlet;
#X obj 100 150 lvn.stave;
#X connect 0 0 1 0;
#X restore 230 310 pd down;
#X obj 340 160 r ax;
#X obj 340 189 r ay;
#X obj 340 218 r az;
#X obj 380 160 r rvx;
#X obj 380 189 r rvy;
#X obj 380 218 r rvz;
#X text 330 130 expression parameters;
#X obj 430 160 r inv;
#X connect 0 0 3 0;
#X connect 3 0 5 0;
#X connect 3 1 6 0;
#X connect 3 2 7 0;
#X connect 4 0 0 0;
