#N canvas 0 23 1440 855 12;
#X obj 100 140 inlet;
#X obj 100 240 lvn.stave;
#X floatatom 330 170 5 0 0 0 - - -, f 5;
#X floatatom 290 50 5 0 0 0 - - -, f 5;
#X floatatom 310 110 5 0 0 0 - - -, f 5;
#X msg 290 80 button \$1;
#X msg 310 140 playhead \$1;
#X obj 440 880 tgl 15 0 empty empty empty 17 7 0 10 #fcfcfc #000000
#000000 0 1;
#X floatatom 520 780 5 0 0 0 - - -, f 5;
#X floatatom 598 638 5 0 0 0 - - -, f 5;
#X msg 680 560 0 0;
#N canvas 0 22 450 300 prepend-set 0;
#X obj 40 80 list prepend set;
#X obj 40 110 list trim;
#X obj 13 26 inlet;
#X obj 13 183 outlet;
#X connect 0 0 1 0;
#X connect 1 0 3 0;
#X connect 2 0 0 0;
#X restore 680 510 pd prepend-set;
#X obj 440 450 route active relativepos distance coords, f 46;
#X obj 100 460 lvn.hyperstave 4;
#X floatatom 130 390 5 0 0 0 - - -, f 5;
#X msg 130 420 hue \$1;
#X text 470 880 useful for enabling/disbaling subpatch;
#X text 560 780 useful for controlling embedded hyperstaves \, and
spatial panning, f 64;
#X text 648 638 useful for volume automation;
#X text 720 560 useful for reusable generative algorithms;
#X obj 440 980 switch~;
#X obj 440 950 tgl 15 0 empty empty empty 17 7 0 10 #fcfcfc #000000
#000000 0 1;
#X floatatom 550 960 5 0 0 0 - - -, f 5;
#X text 468 858 ACTIVE;
#X text 558 758 RELATIVEPOS;
#X text 648 618 DISTANCE;
#X text 720 540 COORDS;
#N canvas 672 127 450 300 smooth-switch 0;
#X obj 40 110 line;
#X msg 40 80 \$1 750;
#X obj 40 180 change;
#X obj 40 40 inlet;
#X obj 90 180 outlet;
#X obj 40 210 outlet;
#X obj 40 150 > 0.001;
#X connect 0 0 4 0;
#X connect 0 0 6 0;
#X connect 1 0 0 0;
#X connect 2 0 5 0;
#X connect 3 0 1 0;
#X connect 6 0 2 0;
#X restore 440 920 pd smooth-switch;
#X text 590 960 👈 use to smoothly fade subpatch;
#X msg 330 200 message \$1;
#X text 420 80 control stave toggle;
#X text 420 140 control stave slider;
#X text 420 180 all other messages are forward to parent hyperstave
and are output from its bottom right outlet, f 35;
#X text 380 340 local send and receives are local to this subpatch
, f 26;
#X obj 440 410 lvn.localreceive stave-info;
#X obj 280 290 lvn.localsend stave-info;
#X text 100 80 communicates with parent hyperstave, f 16;
#X text 110 310 communicates with child hyperstave, f 16;
#X obj 832 182 inlet;
#X text 880 180 dedicated inlet for messages from parent patch, f
35;
#X obj 550 990 lvn.localsend off;
#X obj 550 1040 lvn.localreceive off;
#X obj 440 1070 *~;
#X obj 547 1074 change;
#X obj 510 1070 *~;
#X obj 520 810 lvn.localsend pos;
#X obj 600 670 lvn.localsend distance;
#X obj 810 510 lvn.localsend coords;
#X text 1625 1298 🐉;
#X connect 0 0 1 0;
#X connect 1 0 13 0;
#X connect 1 1 35 0;
#X connect 2 0 29 0;
#X connect 3 0 5 0;
#X connect 4 0 6 0;
#X connect 5 0 1 1;
#X connect 6 0 1 1;
#X connect 7 0 27 0;
#X connect 8 0 45 0;
#X connect 9 0 46 0;
#X connect 11 0 10 0;
#X connect 12 0 7 0;
#X connect 12 1 8 0;
#X connect 12 2 9 0;
#X connect 12 3 11 0;
#X connect 12 3 47 0;
#X connect 14 0 15 0;
#X connect 15 0 13 0;
#X connect 21 0 20 0;
#X connect 22 0 40 0;
#X connect 27 0 21 0;
#X connect 27 1 22 0;
#X connect 29 0 1 1;
#X connect 34 0 12 0;
#X connect 41 0 43 0;
#X connect 43 0 42 1;
#X connect 43 0 44 1;
